<?xml version="1.0" encoding="UTF-8" standalone="no"?>
<!DOCTYPE svg PUBLIC "-//W3C//DTD SVG 1.1//EN"
 "http://www.w3.org/Graphics/SVG/1.1/DTD/svg11.dtd">
<!-- Generated by graphviz version 7.1.0 (20230121.1956)
 -->
<!-- Title: G Pages: 1 -->
<svg width="1099pt" height="781pt"
 viewBox="0.00 0.00 1099.00 780.85" xmlns="http://www.w3.org/2000/svg" xmlns:xlink="http://www.w3.org/1999/xlink">
<g id="graph0" class="graph" transform="scale(1 1) rotate(0) translate(4 776.85)">
<title>G</title>
<polygon fill="white" stroke="none" points="-4,4 -4,-776.85 1095,-776.85 1095,4 -4,4"/>
<!-- external_image_0 -->
<g id="node1" class="node">
<title>external_image_0</title>
<path fill="none" stroke="#333333" stroke-dasharray="5,2" d="M312,-730C312,-730 192,-730 192,-730 186,-730 180,-724 180,-718 180,-718 180,-706 180,-706 180,-700 186,-694 192,-694 192,-694 312,-694 312,-694 318,-694 324,-700 324,-706 324,-706 324,-718 324,-718 324,-724 318,-730 312,-730"/>
<text text-anchor="middle" x="252" y="-708.3" font-family="Times,serif" font-size="14.00" fill="#333333">ubuntu:22.04</text>
</g>
<!-- stage_0 -->
<g id="node2" class="node">
<title>stage_0</title>
<path fill="none" stroke="black" d="M492,-730C492,-730 372,-730 372,-730 366,-730 360,-724 360,-718 360,-718 360,-706 360,-706 360,-700 366,-694 372,-694 372,-694 492,-694 492,-694 498,-694 504,-700 504,-706 504,-706 504,-718 504,-718 504,-724 498,-730 492,-730"/>
<text text-anchor="middle" x="432" y="-708.3" font-family="Times,serif" font-size="14.00">ubuntu_amd64</text>
</g>
<!-- external_image_0&#45;&gt;stage_0 -->
<g id="edge1" class="edge">
<title>external_image_0&#45;&gt;stage_0</title>
<path fill="none" stroke="black" d="M324.37,-712C332.26,-712 340.34,-712 348.36,-712"/>
<polygon fill="black" stroke="black" points="348.1,-715.5 358.1,-712 348.1,-708.5 348.1,-715.5"/>
</g>
<!-- stage_1 -->
<g id="node3" class="node">
<title>stage_1</title>
<path fill="none" stroke="black" d="M492,-672C492,-672 372,-672 372,-672 366,-672 360,-666 360,-660 360,-660 360,-648 360,-648 360,-642 366,-636 372,-636 372,-636 492,-636 492,-636 498,-636 504,-642 504,-648 504,-648 504,-660 504,-660 504,-666 498,-672 492,-672"/>
<text text-anchor="middle" x="432" y="-650.3" font-family="Times,serif" font-size="14.00">ubuntu_arm64</text>
</g>
<!-- external_image_0&#45;&gt;stage_1 -->
<g id="edge2" class="edge">
<title>external_image_0&#45;&gt;stage_1</title>
<path fill="none" stroke="black" d="M309.32,-693.65C326.53,-688.04 345.63,-681.82 363.5,-676"/>
<polygon fill="black" stroke="black" points="364.57,-679.33 373,-672.9 362.4,-672.67 364.57,-679.33"/>
</g>
<!-- stage_2 -->
<g id="node4" class="node">
<title>stage_2</title>
<path fill="none" stroke="black" d="M719,-701C719,-701 552,-701 552,-701 546,-701 540,-695 540,-689 540,-689 540,-677 540,-677 540,-671 546,-665 552,-665 552,-665 719,-665 719,-665 725,-665 731,-671 731,-677 731,-677 731,-689 731,-689 731,-695 725,-701 719,-701"/>
<text text-anchor="middle" x="635.5" y="-679.3" font-family="Times,serif" font-size="14.00">ubuntu_with_amd64_emulation</text>
</g>
<!-- external_image_0&#45;&gt;stage_2 -->
<g id="edge3" class="edge">
<title>external_image_0&#45;&gt;stage_2</title>
<path fill="none" stroke="black" d="M294.82,-730.45C330.29,-744.57 382.91,-761.96 431,-764"/>
<path fill="none" stroke="black" d="M433,-764C495.16,-766.64 560.91,-732.22 599.79,-707.42"/>
<polygon fill="black" stroke="black" points="601.35,-710.58 607.81,-702.18 597.53,-704.72 601.35,-710.58"/>
</g>
<!-- stage_5 -->
<g id="node5" class="node">
<title>stage_5</title>
<path fill="none" stroke="black" d="M899,-458C899,-458 779,-458 779,-458 773,-458 767,-452 767,-446 767,-446 767,-434 767,-434 767,-428 773,-422 779,-422 779,-422 899,-422 899,-422 905,-422 911,-428 911,-434 911,-434 911,-446 911,-446 911,-452 905,-458 899,-458"/>
<text text-anchor="middle" x="839" y="-436.3" font-family="Times,serif" font-size="14.00">build_buildplatform</text>
</g>
<!-- external_image_0&#45;&gt;stage_5 -->
<g id="edge4" class="edge">
<title>external_image_0&#45;&gt;stage_5</title>
<path fill="none" stroke="black" d="M433,-764C567.32,-769.7 626.83,-797 731,-712 807.01,-649.98 829.24,-526.53 835.57,-469.78"/>
<polygon fill="black" stroke="black" points="839.04,-470.23 836.57,-459.93 832.08,-469.52 839.04,-470.23"/>
</g>
<!-- stage_0&#45;&gt;stage_2 -->
<g id="edge5" class="edge">
<title>stage_0&#45;&gt;stage_2</title>
<path fill="none" stroke="black" stroke-dasharray="5,2" d="M504.32,-701.73C512.19,-700.6 520.31,-699.43 528.48,-698.26"/>
<polygon fill="none" stroke="black" points="528.73,-701.76 538.13,-696.87 527.73,-694.83 528.73,-701.76"/>
</g>
<!-- stage_1&#45;&gt;stage_2 -->
<g id="edge7" class="edge">
<title>stage_1&#45;&gt;stage_2</title>
<path fill="none" stroke="black" stroke-dasharray="5,2" d="M504.32,-664.27C512.19,-665.4 520.31,-666.57 528.48,-667.74"/>
<polygon fill="none" stroke="black" points="527.73,-671.17 538.13,-669.13 528.73,-664.24 527.73,-671.17"/>
</g>
<!-- stage_4 -->
<g id="node6" class="node">
<title>stage_4</title>
<path fill="none" stroke="black" d="M899,-400C899,-400 779,-400 779,-400 773,-400 767,-394 767,-388 767,-388 767,-376 767,-376 767,-370 773,-364 779,-364 779,-364 899,-364 899,-364 905,-364 911,-370 911,-376 911,-376 911,-388 911,-388 911,-394 905,-400 899,-400"/>
<text text-anchor="middle" x="839" y="-378.3" font-family="Times,serif" font-size="14.00">base</text>
</g>
<!-- stage_2&#45;&gt;stage_4 -->
<g id="edge9" class="edge">
<title>stage_2&#45;&gt;stage_4</title>
<path fill="none" stroke="black" d="M683.08,-664.54C700.74,-655.25 719.37,-642.23 731,-625 784.94,-545.05 706.74,-486.31 767,-411 767.91,-409.86 768.88,-408.76 769.89,-407.71"/>
<polygon fill="black" stroke="black" points="771.93,-410.57 777.28,-401.43 767.4,-405.24 771.93,-410.57"/>
</g>
<!-- stage_6 -->
<g id="node9" class="node">
<title>stage_6</title>
<path fill="none" stroke="black" d="M1079,-458C1079,-458 959,-458 959,-458 953,-458 947,-452 947,-446 947,-446 947,-434 947,-434 947,-428 953,-422 959,-422 959,-422 1079,-422 1079,-422 1085,-422 1091,-428 1091,-434 1091,-434 1091,-446 1091,-446 1091,-452 1085,-458 1079,-458"/>
<text text-anchor="middle" x="1019" y="-436.3" font-family="Times,serif" font-size="14.00">test</text>
</g>
<!-- stage_5&#45;&gt;stage_6 -->
<g id="edge34" class="edge">
<title>stage_5&#45;&gt;stage_6</title>
<path fill="none" stroke="black" stroke-dasharray="5,2" d="M911.37,-440C919.26,-440 927.34,-440 935.36,-440"/>
<polygon fill="none" stroke="black" points="935.1,-443.5 945.1,-440 935.1,-436.5 935.1,-443.5"/>
</g>
<!-- stage_7 -->
<g id="node10" class="node">
<title>stage_7</title>
<path fill="#e5e5e5" stroke="black" d="M1079,-400C1079,-400 959,-400 959,-400 953,-400 947,-394 947,-388 947,-388 947,-376 947,-376 947,-370 953,-364 959,-364 959,-364 1079,-364 1079,-364 1085,-364 1091,-370 1091,-376 1091,-376 1091,-388 1091,-388 1091,-394 1085,-400 1079,-400"/>
<text text-anchor="middle" x="1019" y="-378.3" font-family="Times,serif" font-size="14.00">7</text>
</g>
<!-- stage_5&#45;&gt;stage_7 -->
<g id="edge37" class="edge">
<title>stage_5&#45;&gt;stage_7</title>
<path fill="none" stroke="black" stroke-dasharray="5,2" d="M896.32,-421.65C913.53,-416.04 932.63,-409.82 950.5,-404"/>
<polygon fill="none" stroke="black" points="951.57,-407.33 960,-400.9 949.4,-400.67 951.57,-407.33"/>
</g>
<!-- stage_4&#45;&gt;stage_6 -->
<g id="edge12" class="edge">
<title>stage_4&#45;&gt;stage_6</title>
<path fill="none" stroke="black" d="M896.32,-400.35C913.53,-405.96 932.63,-412.18 950.5,-418"/>
<polygon fill="black" stroke="black" points="949.4,-421.33 960,-421.1 951.57,-414.67 949.4,-421.33"/>
</g>
<!-- stage_4&#45;&gt;stage_7 -->
<g id="edge13" class="edge">
<title>stage_4&#45;&gt;stage_7</title>
<path fill="none" stroke="black" d="M911.37,-382C919.26,-382 927.34,-382 935.36,-382"/>
<polygon fill="black" stroke="black" points="935.1,-385.5 945.1,-382 935.1,-378.5 935.1,-385.5"/>
</g>
<!-- external_image_1 -->
<g id="node7" class="node">
<title>external_image_1</title>
<path fill="none" stroke="#333333" stroke-dasharray="5,2" d="M492,-614C492,-614 372,-614 372,-614 366,-614 360,-608 360,-602 360,-602 360,-590 360,-590 360,-584 366,-578 372,-578 372,-578 492,-578 492,-578 498,-578 504,-584 504,-590 504,-590 504,-602 504,-602 504,-608 498,-614 492,-614"/>
<text text-anchor="middle" x="432" y="-592.3" font-family="Times,serif" font-size="14.00" fill="#333333">alpine:3.12.0</text>
</g>
<!-- stage_3 -->
<g id="node8" class="node">
<title>stage_3</title>
<path fill="none" stroke="black" d="M695.5,-614C695.5,-614 575.5,-614 575.5,-614 569.5,-614 563.5,-608 563.5,-602 563.5,-602 563.5,-590 563.5,-590 563.5,-584 569.5,-578 575.5,-578 575.5,-578 695.5,-578 695.5,-578 701.5,-578 707.5,-584 707.5,-590 707.5,-590 707.5,-602 707.5,-602 707.5,-608 701.5,-614 695.5,-614"/>
<text text-anchor="middle" x="635.5" y="-592.3" font-family="Times,serif" font-size="14.00">a_dependency</text>
</g>
<!-- external_image_1&#45;&gt;stage_3 -->
<g id="edge10" class="edge">
<title>external_image_1&#45;&gt;stage_3</title>
<path fill="none" stroke="black" d="M504.32,-596C519.72,-596 536.12,-596 551.91,-596"/>
<polygon fill="black" stroke="black" points="551.76,-599.5 561.76,-596 551.76,-592.5 551.76,-599.5"/>
</g>
<!-- stage_3&#45;&gt;stage_4 -->
<g id="edge11" class="edge">
<title>stage_3&#45;&gt;stage_4</title>
<path fill="none" stroke="black" stroke-dasharray="5,2" d="M707.89,-583.21C716.54,-579.18 724.57,-573.91 731,-567 779.5,-514.93 720.89,-465.2 767,-411 768.08,-409.73 769.22,-408.52 770.42,-407.36"/>
<polygon fill="none" stroke="black" points="772.25,-410.38 777.85,-401.38 767.86,-404.92 772.25,-410.38"/>
</g>
<!-- external_image_2 -->
<g id="node11" class="node">
<title>external_image_2</title>
<path fill="none" stroke="#333333" stroke-dasharray="5,2" d="M695.5,-556C695.5,-556 575.5,-556 575.5,-556 569.5,-556 563.5,-550 563.5,-544 563.5,-544 563.5,-532 563.5,-532 563.5,-526 569.5,-520 575.5,-520 575.5,-520 695.5,-520 695.5,-520 701.5,-520 707.5,-526 707.5,-532 707.5,-532 707.5,-544 707.5,-544 707.5,-550 701.5,-556 695.5,-556"/>
<text text-anchor="middle" x="635.5" y="-534.3" font-family="Times,serif" font-size="14.00" fill="#333333">docker.i...pine:3.14</text>
</g>
<!-- external_image_2&#45;&gt;stage_4 -->
<g id="edge14" class="edge">
<title>external_image_2&#45;&gt;stage_4</title>
<path fill="none" stroke="black" stroke-dasharray="5,2" d="M707.09,-519.62C715.86,-515.2 724.13,-509.74 731,-503 762.33,-472.24 736.18,-442.28 767,-411 768.38,-409.6 769.84,-408.26 771.36,-406.99"/>
<polygon fill="none" stroke="black" points="773.33,-409.88 779.45,-401.23 769.27,-404.18 773.33,-409.88"/>
</g>
<!-- external_image_3 -->
<g id="node12" class="node">
<title>external_image_3</title>
<path fill="none" stroke="#333333" stroke-dasharray="5,2" d="M492,-556C492,-556 372,-556 372,-556 366,-556 360,-550 360,-544 360,-544 360,-532 360,-532 360,-526 366,-520 372,-520 372,-520 492,-520 492,-520 498,-520 504,-526 504,-532 504,-532 504,-544 504,-544 504,-550 498,-556 492,-556"/>
<text text-anchor="middle" x="432" y="-534.3" font-family="Times,serif" font-size="14.00" fill="#333333">docker.i...ne:3.14.1</text>
</g>
<!-- external_image_3&#45;&gt;stage_4 -->
<g id="edge15" class="edge">
<title>external_image_3&#45;&gt;stage_4</title>
<path fill="none" stroke="black" stroke-dasharray="5,2" d="M500,-519.56C513.24,-515.99 527.05,-512.33 540,-509 581.86,-498.23 593.2,-498.76 634.5,-486"/>
</g>
<!-- external_image_4 -->
<g id="node13" class="node">
<title>external_image_4</title>
<path fill="none" stroke="#333333" stroke-dasharray="5,2" d="M312,-504C312,-504 192,-504 192,-504 186,-504 180,-498 180,-492 180,-492 180,-480 180,-480 180,-474 186,-468 192,-468 192,-468 312,-468 312,-468 318,-468 324,-474 324,-480 324,-480 324,-492 324,-492 324,-498 318,-504 312,-504"/>
<text text-anchor="middle" x="252" y="-482.3" font-family="Times,serif" font-size="14.00" fill="#333333">docker.i...ne:3.14.2</text>
</g>
<!-- external_image_4&#45;&gt;stage_4 -->
<g id="edge16" class="edge">
<title>external_image_4&#45;&gt;stage_4</title>
<path fill="none" stroke="black" stroke-dasharray="5,2" d="M324.11,-483.67C356.72,-483.2 395.86,-483.48 431,-486"/>
</g>
<!-- external_image_5 -->
<g id="node14" class="node">
<title>external_image_5</title>
<path fill="none" stroke="#333333" stroke-dasharray="5,2" d="M132,-452C132,-452 12,-452 12,-452 6,-452 0,-446 0,-440 0,-440 0,-428 0,-428 0,-422 6,-416 12,-416 12,-416 132,-416 132,-416 138,-416 144,-422 144,-428 144,-428 144,-440 144,-440 144,-446 138,-452 132,-452"/>
<text text-anchor="middle" x="72" y="-430.3" font-family="Times,serif" font-size="14.00" fill="#333333">docker.i...ne:3.14.3</text>
</g>
<!-- external_image_5&#45;&gt;stage_4 -->
<g id="edge17" class="edge">
<title>external_image_5&#45;&gt;stage_4</title>
<path fill="none" stroke="black" stroke-dasharray="5,2" d="M636.5,-486C677.8,-473.24 695.37,-487.48 731,-463 754.17,-447.08 745.08,-428.6 767,-411 769.1,-409.31 771.32,-407.71 773.61,-406.19"/>
<polygon fill="none" stroke="black" points="775.29,-409.27 782.12,-401.17 771.73,-403.24 775.29,-409.27"/>
<path fill="none" stroke="black" stroke-dasharray="5,2" d="M144.31,-437.24C194.79,-440.33 263.92,-446.19 324,-457 372.49,-465.73 381.86,-482.47 431,-486"/>
<path fill="none" stroke="black" stroke-dasharray="5,2" d="M433,-486C522.43,-490.71 548.94,-512.45 634.5,-486"/>
</g>
<!-- external_image_6 -->
<g id="node15" class="node">
<title>external_image_6</title>
<path fill="none" stroke="#333333" stroke-dasharray="5,2" d="M695.5,-452C695.5,-452 575.5,-452 575.5,-452 569.5,-452 563.5,-446 563.5,-440 563.5,-440 563.5,-428 563.5,-428 563.5,-422 569.5,-416 575.5,-416 575.5,-416 695.5,-416 695.5,-416 701.5,-416 707.5,-422 707.5,-428 707.5,-428 707.5,-440 707.5,-440 707.5,-446 701.5,-452 695.5,-452"/>
<text text-anchor="middle" x="635.5" y="-430.3" font-family="Times,serif" font-size="14.00" fill="#333333">docker.i...ne:3.14.4</text>
</g>
<!-- external_image_6&#45;&gt;stage_4 -->
<g id="edge18" class="edge">
<title>external_image_6&#45;&gt;stage_4</title>
<path fill="none" stroke="black" stroke-dasharray="5,2" d="M707.82,-415.59C723.37,-411.58 739.94,-407.31 755.87,-403.2"/>
<polygon fill="none" stroke="black" points="756.5,-406.65 765.31,-400.76 754.75,-399.87 756.5,-406.65"/>
</g>
<!-- external_image_7 -->
<g id="node16" class="node">
<title>external_image_7</title>
<path fill="none" stroke="#333333" stroke-dasharray="5,2" d="M492,-452C492,-452 372,-452 372,-452 366,-452 360,-446 360,-440 360,-440 360,-428 360,-428 360,-422 366,-416 372,-416 372,-416 492,-416 492,-416 498,-416 504,-422 504,-428 504,-428 504,-440 504,-440 504,-446 498,-452 492,-452"/>
<text text-anchor="middle" x="432" y="-430.3" font-family="Times,serif" font-size="14.00" fill="#333333">docker.i...ne:3.14.5</text>
</g>
<!-- external_image_7&#45;&gt;stage_4 -->
<g id="edge19" class="edge">
<title>external_image_7&#45;&gt;stage_4</title>
<path fill="none" stroke="black" stroke-dasharray="5,2" d="M482.66,-415.58C522.93,-402.02 581.5,-385.37 634.5,-382"/>
</g>
<!-- external_image_8 -->
<g id="node17" class="node">
<title>external_image_8</title>
<path fill="none" stroke="#333333" stroke-dasharray="5,2" d="M312,-400C312,-400 192,-400 192,-400 186,-400 180,-394 180,-388 180,-388 180,-376 180,-376 180,-370 186,-364 192,-364 192,-364 312,-364 312,-364 318,-364 324,-370 324,-376 324,-376 324,-388 324,-388 324,-394 318,-400 312,-400"/>
<text text-anchor="middle" x="252" y="-378.3" font-family="Times,serif" font-size="14.00" fill="#333333">docker.i...ne:3.14.6</text>
</g>
<!-- external_image_8&#45;&gt;stage_4 -->
<g id="edge20" class="edge">
<title>external_image_8&#45;&gt;stage_4</title>
<path fill="none" stroke="black" stroke-dasharray="5,2" d="M324.11,-379.67C356.72,-379.2 395.86,-379.48 431,-382"/>
</g>
<!-- external_image_9 -->
<g id="node18" class="node">
<title>external_image_9</title>
<path fill="none" stroke="#333333" stroke-dasharray="5,2" d="M132,-348C132,-348 12,-348 12,-348 6,-348 0,-342 0,-336 0,-336 0,-324 0,-324 0,-318 6,-312 12,-312 12,-312 132,-312 132,-312 138,-312 144,-318 144,-324 144,-324 144,-336 144,-336 144,-342 138,-348 132,-348"/>
<text text-anchor="middle" x="72" y="-326.3" font-family="Times,serif" font-size="14.00" fill="#333333">docker.i...ne:3.14.7</text>
</g>
<!-- external_image_9&#45;&gt;stage_4 -->
<g id="edge21" class="edge">
<title>external_image_9&#45;&gt;stage_4</title>
<path fill="none" stroke="black" stroke-dasharray="5,2" d="M144.31,-333.24C194.79,-336.33 263.92,-342.19 324,-353 372.49,-361.73 381.86,-378.47 431,-382"/>
<path fill="none" stroke="black" stroke-dasharray="5,2" d="M433,-382C522.43,-386.71 545.13,-387.69 634.5,-382"/>
<path fill="none" stroke="black" stroke-dasharray="5,2" d="M636.5,-382C675.57,-379.51 719,-379.2 755.5,-379.64"/>
<polygon fill="none" stroke="black" points="755.03,-383.13 765.08,-379.77 755.13,-376.13 755.03,-383.13"/>
</g>
<!-- external_image_10 -->
<g id="node19" class="node">
<title>external_image_10</title>
<path fill="none" stroke="#333333" stroke-dasharray="5,2" d="M695.5,-348C695.5,-348 575.5,-348 575.5,-348 569.5,-348 563.5,-342 563.5,-336 563.5,-336 563.5,-324 563.5,-324 563.5,-318 569.5,-312 575.5,-312 575.5,-312 695.5,-312 695.5,-312 701.5,-312 707.5,-318 707.5,-324 707.5,-324 707.5,-336 707.5,-336 707.5,-342 701.5,-348 695.5,-348"/>
<text text-anchor="middle" x="635.5" y="-326.3" font-family="Times,serif" font-size="14.00" fill="#333333">docker.i...ne:3.14.8</text>
</g>
<!-- external_image_10&#45;&gt;stage_4 -->
<g id="edge22" class="edge">
<title>external_image_10&#45;&gt;stage_4</title>
<path fill="none" stroke="black" stroke-dasharray="5,2" d="M707.82,-348.41C723.37,-352.42 739.94,-356.69 755.87,-360.8"/>
<polygon fill="none" stroke="black" points="754.75,-364.13 765.31,-363.24 756.5,-357.35 754.75,-364.13"/>
</g>
<!-- external_image_11 -->
<g id="node20" class="node">
<title>external_image_11</title>
<path fill="none" stroke="#333333" stroke-dasharray="5,2" d="M492,-348C492,-348 372,-348 372,-348 366,-348 360,-342 360,-336 360,-336 360,-324 360,-324 360,-318 366,-312 372,-312 372,-312 492,-312 492,-312 498,-312 504,-318 504,-324 504,-324 504,-336 504,-336 504,-342 498,-348 492,-348"/>
<text text-anchor="middle" x="432" y="-326.3" font-family="Times,serif" font-size="14.00" fill="#333333">docker.i...pine:3.15</text>
</g>
<!-- external_image_11&#45;&gt;stage_4 -->
<g id="edge23" class="edge">
<title>external_image_11&#45;&gt;stage_4</title>
<path fill="none" stroke="black" stroke-dasharray="5,2" d="M467.94,-311.59C507.83,-292.77 575.24,-267.66 634.5,-278"/>
</g>
<!-- external_image_12 -->
<g id="node21" class="node">
<title>external_image_12</title>
<path fill="none" stroke="#333333" stroke-dasharray="5,2" d="M312,-296C312,-296 192,-296 192,-296 186,-296 180,-290 180,-284 180,-284 180,-272 180,-272 180,-266 186,-260 192,-260 192,-260 312,-260 312,-260 318,-260 324,-266 324,-272 324,-272 324,-284 324,-284 324,-290 318,-296 312,-296"/>
<text text-anchor="middle" x="252" y="-274.3" font-family="Times,serif" font-size="14.00" fill="#333333">docker.i...ne:3.15.1</text>
</g>
<!-- external_image_12&#45;&gt;stage_4 -->
<g id="edge24" class="edge">
<title>external_image_12&#45;&gt;stage_4</title>
<path fill="none" stroke="black" stroke-dasharray="5,2" d="M324.11,-275.67C356.72,-275.2 395.86,-275.48 431,-278"/>
</g>
<!-- external_image_13 -->
<g id="node22" class="node">
<title>external_image_13</title>
<path fill="none" stroke="#333333" stroke-dasharray="5,2" d="M132,-244C132,-244 12,-244 12,-244 6,-244 0,-238 0,-232 0,-232 0,-220 0,-220 0,-214 6,-208 12,-208 12,-208 132,-208 132,-208 138,-208 144,-214 144,-220 144,-220 144,-232 144,-232 144,-238 138,-244 132,-244"/>
<text text-anchor="middle" x="72" y="-222.3" font-family="Times,serif" font-size="14.00" fill="#333333">docker.i...ne:3.15.2</text>
</g>
<!-- external_image_13&#45;&gt;stage_4 -->
<g id="edge25" class="edge">
<title>external_image_13&#45;&gt;stage_4</title>
<path fill="none" stroke="black" stroke-dasharray="5,2" d="M433,-278C522.33,-284.42 546.28,-262.61 634.5,-278"/>
<path fill="none" stroke="black" stroke-dasharray="5,2" d="M636.5,-278C679.08,-285.43 691.95,-282.46 731,-301 760.7,-315.1 790.17,-338.27 810.64,-356.22"/>
<polygon fill="none" stroke="black" points="808.19,-358.73 817.98,-362.8 812.86,-353.52 808.19,-358.73"/>
<path fill="none" stroke="black" stroke-dasharray="5,2" d="M144.31,-229.24C194.79,-232.33 263.92,-238.19 324,-249 372.49,-257.73 381.86,-274.47 431,-278"/>
</g>
<!-- external_image_14 -->
<g id="node23" class="node">
<title>external_image_14</title>
<path fill="none" stroke="#333333" stroke-dasharray="5,2" d="M695.5,-244C695.5,-244 575.5,-244 575.5,-244 569.5,-244 563.5,-238 563.5,-232 563.5,-232 563.5,-220 563.5,-220 563.5,-214 569.5,-208 575.5,-208 575.5,-208 695.5,-208 695.5,-208 701.5,-208 707.5,-214 707.5,-220 707.5,-220 707.5,-232 707.5,-232 707.5,-238 701.5,-244 695.5,-244"/>
<text text-anchor="middle" x="635.5" y="-222.3" font-family="Times,serif" font-size="14.00" fill="#333333">docker.i...ne:3.15.3</text>
</g>
<!-- external_image_14&#45;&gt;stage_4 -->
<g id="edge26" class="edge">
<title>external_image_14&#45;&gt;stage_4</title>
<path fill="none" stroke="black" stroke-dasharray="5,2" d="M699.65,-244.43C710.58,-248.99 721.47,-254.47 731,-261 768.09,-286.41 800.68,-327.45 819.87,-354.57"/>
<polygon fill="none" stroke="black" points="816.89,-356.41 825.46,-362.64 822.64,-352.42 816.89,-356.41"/>
</g>
<!-- external_image_15 -->
<g id="node24" class="node">
<title>external_image_15</title>
<path fill="none" stroke="#333333" stroke-dasharray="5,2" d="M492,-244C492,-244 372,-244 372,-244 366,-244 360,-238 360,-232 360,-232 360,-220 360,-220 360,-214 366,-208 372,-208 372,-208 492,-208 492,-208 498,-208 504,-214 504,-220 504,-220 504,-232 504,-232 504,-238 498,-244 492,-244"/>
<text text-anchor="middle" x="432" y="-222.3" font-family="Times,serif" font-size="14.00" fill="#333333">docker.i...ne:3.15.4</text>
</g>
<!-- external_image_15&#45;&gt;stage_4 -->
<g id="edge27" class="edge">
<title>external_image_15&#45;&gt;stage_4</title>
<path fill="none" stroke="black" stroke-dasharray="5,2" d="M479.7,-207.59C529.86,-188.94 606.18,-164.15 634.5,-174"/>
</g>
<!-- external_image_16 -->
<g id="node25" class="node">
<title>external_image_16</title>
<path fill="none" stroke="#333333" stroke-dasharray="5,2" d="M312,-192C312,-192 192,-192 192,-192 186,-192 180,-186 180,-180 180,-180 180,-168 180,-168 180,-162 186,-156 192,-156 192,-156 312,-156 312,-156 318,-156 324,-162 324,-168 324,-168 324,-180 324,-180 324,-186 318,-192 312,-192"/>
<text text-anchor="middle" x="252" y="-170.3" font-family="Times,serif" font-size="14.00" fill="#333333">docker.i...ne:3.15.5</text>
</g>
<!-- external_image_16&#45;&gt;stage_4 -->
<g id="edge28" class="edge">
<title>external_image_16&#45;&gt;stage_4</title>
<path fill="none" stroke="black" stroke-dasharray="5,2" d="M324.11,-171.67C356.72,-171.2 395.86,-171.48 431,-174"/>
</g>
<!-- external_image_17 -->
<g id="node26" class="node">
<title>external_image_17</title>
<path fill="none" stroke="#333333" stroke-dasharray="5,2" d="M132,-140C132,-140 12,-140 12,-140 6,-140 0,-134 0,-128 0,-128 0,-116 0,-116 0,-110 6,-104 12,-104 12,-104 132,-104 132,-104 138,-104 144,-110 144,-116 144,-116 144,-128 144,-128 144,-134 138,-140 132,-140"/>
<text text-anchor="middle" x="72" y="-118.3" font-family="Times,serif" font-size="14.00" fill="#333333">docker.i...ne:3.15.6</text>
</g>
<!-- external_image_17&#45;&gt;stage_4 -->
<g id="edge29" class="edge">
<title>external_image_17&#45;&gt;stage_4</title>
<path fill="none" stroke="black" stroke-dasharray="5,2" d="M144.31,-125.24C194.79,-128.33 263.92,-134.19 324,-145 372.49,-153.73 381.86,-170.47 431,-174"/>
<path fill="none" stroke="black" stroke-dasharray="5,2" d="M636.5,-174C677.33,-188.2 696.4,-171.1 731,-197 784.24,-236.85 815.38,-311.58 829.27,-352.82"/>
<polygon fill="none" stroke="black" points="825.93,-353.87 832.34,-362.31 832.59,-351.71 825.93,-353.87"/>
<path fill="none" stroke="black" stroke-dasharray="5,2" d="M433,-174C522.43,-178.71 549.91,-144.59 634.5,-174"/>
</g>
<!-- external_image_18 -->
<g id="node27" class="node">
<title>external_image_18</title>
<path fill="none" stroke="#333333" stroke-dasharray="5,2" d="M695.5,-140C695.5,-140 575.5,-140 575.5,-140 569.5,-140 563.5,-134 563.5,-128 563.5,-128 563.5,-116 563.5,-116 563.5,-110 569.5,-104 575.5,-104 575.5,-104 695.5,-104 695.5,-104 701.5,-104 707.5,-110 707.5,-116 707.5,-116 707.5,-128 707.5,-128 707.5,-134 701.5,-140 695.5,-140"/>
<text text-anchor="middle" x="635.5" y="-118.3" font-family="Times,serif" font-size="14.00" fill="#333333">docker.i...ne:3.16.1</text>
</g>
<!-- external_image_18&#45;&gt;stage_4 -->
<g id="edge30" class="edge">
<title>external_image_18&#45;&gt;stage_4</title>
<path fill="none" stroke="black" stroke-dasharray="5,2" d="M705.69,-140.37C714.87,-144.8 723.64,-150.27 731,-157 790.29,-211.23 819.87,-305.22 831.65,-352.72"/>
<polygon fill="none" stroke="black" points="828.2,-353.35 833.91,-362.27 835.01,-351.74 828.2,-353.35"/>
</g>
<!-- external_image_19 -->
<g id="node28" class="node">
<title>external_image_19</title>
<path fill="none" stroke="#333333" stroke-dasharray="5,2" d="M492,-140C492,-140 372,-140 372,-140 366,-140 360,-134 360,-128 360,-128 360,-116 360,-116 360,-110 366,-104 372,-104 372,-104 492,-104 492,-104 498,-104 504,-110 504,-116 504,-116 504,-128 504,-128 504,-134 498,-140 492,-140"/>
<text text-anchor="middle" x="432" y="-118.3" font-family="Times,serif" font-size="14.00" fill="#333333">docker.i...ne:3.16.2</text>
</g>
<!-- external_image_19&#45;&gt;stage_4 -->
<g id="edge31" class="edge">
<title>external_image_19&#45;&gt;stage_4</title>
<path fill="none" stroke="black" stroke-dasharray="5,2" d="M477.4,-103.63C527.85,-83.96 606.79,-57.19 634.5,-70"/>
</g>
<!-- external_image_20 -->
<g id="node29" class="node">
<title>external_image_20</title>
<path fill="none" stroke="#333333" stroke-dasharray="5,2" d="M312,-88C312,-88 192,-88 192,-88 186,-88 180,-82 180,-76 180,-76 180,-64 180,-64 180,-58 186,-52 192,-52 192,-52 312,-52 312,-52 318,-52 324,-58 324,-64 324,-64 324,-76 324,-76 324,-82 318,-88 312,-88"/>
<text text-anchor="middle" x="252" y="-66.3" font-family="Times,serif" font-size="14.00" fill="#333333">docker.i...ne:3.16.3</text>
</g>
<!-- external_image_20&#45;&gt;stage_4 -->
<g id="edge32" class="edge">
<title>external_image_20&#45;&gt;stage_4</title>
<path fill="none" stroke="black" stroke-dasharray="5,2" d="M324.11,-67.67C356.72,-67.2 395.86,-67.48 431,-70"/>
</g>
<!-- external_image_21 -->
<g id="node30" class="node">
<title>external_image_21</title>
<path fill="none" stroke="#333333" stroke-dasharray="5,2" d="M132,-36C132,-36 12,-36 12,-36 6,-36 0,-30 0,-24 0,-24 0,-12 0,-12 0,-6 6,0 12,0 12,0 132,0 132,0 138,0 144,-6 144,-12 144,-12 144,-24 144,-24 144,-30 138,-36 132,-36"/>
<text text-anchor="middle" x="72" y="-14.3" font-family="Times,serif" font-size="14.00" fill="#333333">docker.i...pine:3.16</text>
</g>
<!-- external_image_21&#45;&gt;stage_4 -->
<g id="edge33" class="edge">
<title>external_image_21&#45;&gt;stage_4</title>
<path fill="none" stroke="black" stroke-dasharray="5,2" d="M433,-70C522.33,-76.42 553.21,-32.43 634.5,-70"/>
<path fill="none" stroke="black" stroke-dasharray="5,2" d="M144.31,-21.24C194.79,-24.33 263.92,-30.19 324,-41 372.49,-49.73 381.86,-66.47 431,-70"/>
<path fill="none" stroke="black" stroke-dasharray="5,2" d="M636.5,-70C675.74,-88.13 698.72,-64.26 731,-93 808.78,-162.25 830.14,-293.28 835.91,-352.1"/>
<polygon fill="none" stroke="black" points="832.42,-352.34 836.79,-362 839.39,-351.73 832.42,-352.34"/>
</g>
</g>
</svg>
