<?xml version="1.0" encoding="UTF-8" standalone="no"?>
<!DOCTYPE svg PUBLIC "-//W3C//DTD SVG 1.1//EN"
 "http://www.w3.org/Graphics/SVG/1.1/DTD/svg11.dtd">
<!-- Generated by graphviz version 8.0.5 (20230430.1635)
 -->
<!-- Title: G Pages: 1 -->
<svg width="554pt" height="402pt"
 viewBox="0.00 0.00 554.00 402.00" xmlns="http://www.w3.org/2000/svg" xmlns:xlink="http://www.w3.org/1999/xlink">
<g id="graph0" class="graph" transform="scale(1 1) rotate(0) translate(4 398)">
<title>G</title>
<polygon fill="white" stroke="none" points="-4,4 -4,-398 550,-398 550,4 -4,4"/>
<g id="clust1" class="cluster">
<title>cluster_legend</title>
<polygon fill="none" stroke="black" points="8,-8 8,-78 329,-78 329,-8 8,-8"/>
</g>
<!-- key -->
<g id="node1" class="node">
<title>key</title>
<text text-anchor="start" x="122" y="-54.38" font-family="monospace" font-size="10.00">FROM ... </text>
<text text-anchor="start" x="80" y="-39.12" font-family="monospace" font-size="10.00">COPY &#45;&#45;from=... </text>
<text text-anchor="start" x="26" y="-23.88" font-family="monospace" font-size="10.00">RUN &#45;&#45;mount=(.*)from=... </text>
</g>
<!-- key2 -->
<g id="node2" class="node">
<title>key2</title>
<text text-anchor="start" x="291" y="-54.38" font-family="monospace" font-size="10.00"> </text>
<text text-anchor="start" x="291" y="-39.12" font-family="monospace" font-size="10.00"> </text>
<text text-anchor="start" x="291" y="-23.88" font-family="monospace" font-size="10.00"> </text>
</g>
<!-- key&#45;&gt;key2 -->
<g id="edge1" class="edge">
<title>key:e&#45;&gt;key2:w</title>
<path fill="none" stroke="black" d="M179,-58C223.57,-58 237.38,-58 277.02,-58"/>
<polygon fill="black" stroke="black" points="277,-61.5 287,-58 277,-54.5 277,-61.5"/>
</g>
<!-- key&#45;&gt;key2 -->
<g id="edge2" class="edge">
<title>key:e&#45;&gt;key2:w</title>
<path fill="none" stroke="black" stroke-dasharray="5,2" d="M179,-43C223.57,-43 237.38,-43 277.02,-43"/>
<polygon fill="none" stroke="black" points="277,-46.5 287,-43 277,-39.5 277,-46.5"/>
</g>
<!-- key&#45;&gt;key2 -->
<g id="edge3" class="edge">
<title>key:e&#45;&gt;key2:w</title>
<path fill="none" stroke="black" stroke-dasharray="1,5" d="M179,-28C222.9,-28 236.97,-28 275.27,-28"/>
<polygon fill="none" stroke="black" points="275.1,-28 281.1,-24 287.1,-28 281.1,-32 275.1,-28"/>
</g>
<!-- external_image_0 -->
<g id="node3" class="node">
<title>external_image_0</title>
<path fill="none" stroke="#333333" stroke-dasharray="5,2" d="M161,-394C161,-394 41,-394 41,-394 35,-394 29,-388 29,-382 29,-382 29,-370 29,-370 29,-364 35,-358 41,-358 41,-358 161,-358 161,-358 167,-358 173,-364 173,-370 173,-370 173,-382 173,-382 173,-388 167,-394 161,-394"/>
<text text-anchor="middle" x="101" y="-370.95" font-family="Times,serif" font-size="14.00" fill="#333333">ubuntu:l...887c2c7ac</text>
</g>
<!-- stage_0 -->
<g id="node4" class="node">
<title>stage_0</title>
<path fill="none" stroke="black" d="M354,-394C354,-394 234,-394 234,-394 228,-394 222,-388 222,-382 222,-382 222,-370 222,-370 222,-364 228,-358 234,-358 234,-358 354,-358 354,-358 360,-358 366,-364 366,-370 366,-370 366,-382 366,-382 366,-388 360,-394 354,-394"/>
<text text-anchor="middle" x="294" y="-370.95" font-family="Times,serif" font-size="14.00">ubuntu</text>
</g>
<!-- external_image_0&#45;&gt;stage_0 -->
<g id="edge4" class="edge">
<title>external_image_0&#45;&gt;stage_0</title>
<path fill="none" stroke="black" d="M173.39,-376C185.6,-376 198.38,-376 210.84,-376"/>
<polygon fill="black" stroke="black" points="210.69,-379.5 220.69,-376 210.69,-372.5 210.69,-379.5"/>
</g>
<!-- stage_2 -->
<g id="node9" class="node">
<title>stage_2</title>
<path fill="#e5e5e5" stroke="black" d="M534,-286C534,-286 414,-286 414,-286 408,-286 402,-280 402,-274 402,-274 402,-262 402,-262 402,-256 408,-250 414,-250 414,-250 534,-250 534,-250 540,-250 546,-256 546,-262 546,-262 546,-274 546,-274 546,-280 540,-286 534,-286"/>
<text text-anchor="middle" x="474" y="-262.95" font-family="Times,serif" font-size="14.00">release</text>
</g>
<!-- stage_0&#45;&gt;stage_2 -->
<g id="edge8" class="edge">
<title>stage_0&#45;&gt;stage_2</title>
<path fill="none" stroke="black" stroke-dasharray="5,2" d="M325.2,-357.68C354.99,-339.6 400.69,-311.87 433.38,-292.04"/>
<polygon fill="none" stroke="black" points="434.92,-294.59 441.66,-286.41 431.29,-288.61 434.92,-294.59"/>
</g>
<!-- external_image_1 -->
<g id="node5" class="node">
<title>external_image_1</title>
<path fill="none" stroke="#333333" stroke-dasharray="5,2" d="M161,-286C161,-286 41,-286 41,-286 35,-286 29,-280 29,-274 29,-274 29,-262 29,-262 29,-256 35,-250 41,-250 41,-250 161,-250 161,-250 167,-250 173,-256 173,-262 173,-262 173,-274 173,-274 173,-280 167,-286 161,-286"/>
<text text-anchor="middle" x="101" y="-262.95" font-family="Times,serif" font-size="14.00" fill="#333333">golang:1...b738433da</text>
</g>
<!-- stage_1 -->
<g id="node6" class="node">
<title>stage_1</title>
<path fill="none" stroke="black" d="M354,-286C354,-286 234,-286 234,-286 228,-286 222,-280 222,-274 222,-274 222,-262 222,-262 222,-256 228,-250 234,-250 234,-250 354,-250 354,-250 360,-250 366,-256 366,-262 366,-262 366,-274 366,-274 366,-280 360,-286 354,-286"/>
<text text-anchor="middle" x="294" y="-262.95" font-family="Times,serif" font-size="14.00">build&#45;tool&#45;depend...</text>
</g>
<!-- external_image_1&#45;&gt;stage_1 -->
<g id="edge5" class="edge">
<title>external_image_1&#45;&gt;stage_1</title>
<path fill="none" stroke="black" d="M173.39,-268C185.6,-268 198.38,-268 210.84,-268"/>
<polygon fill="black" stroke="black" points="210.69,-271.5 220.69,-268 210.69,-264.5 210.69,-271.5"/>
</g>
<!-- stage_1&#45;&gt;stage_2 -->
<g id="edge9" class="edge">
<title>stage_1&#45;&gt;stage_2</title>
<path fill="none" stroke="black" stroke-dasharray="5,2" d="M366.37,-268C374.35,-268 382.53,-268 390.63,-268"/>
<polygon fill="none" stroke="black" points="390.61,-271.5 400.61,-268 390.61,-264.5 390.61,-271.5"/>
</g>
<!-- external_image_2 -->
<g id="node7" class="node">
<title>external_image_2</title>
<path fill="none" stroke="#333333" stroke-dasharray="5,2" d="M161,-178C161,-178 41,-178 41,-178 35,-178 29,-172 29,-166 29,-166 29,-154 29,-154 29,-148 35,-142 41,-142 41,-142 161,-142 161,-142 167,-142 173,-148 173,-154 173,-154 173,-166 173,-166 173,-172 167,-178 161,-178"/>
<text text-anchor="middle" x="101" y="-154.95" font-family="Times,serif" font-size="14.00" fill="#333333">buildcache</text>
</g>
<!-- external_image_2&#45;&gt;stage_1 -->
<g id="edge6" class="edge">
<title>external_image_2&#45;&gt;stage_1</title>
<path fill="none" stroke="black" stroke-dasharray="1,5" d="M134.4,-178.32C165.96,-196.16 214.15,-223.41 249.13,-243.19"/>
<polygon fill="none" stroke="black" points="249.21,-243.24 256.4,-242.71 259.66,-249.15 252.46,-249.67 249.21,-243.24"/>
</g>
<!-- external_image_3 -->
<g id="node8" class="node">
<title>external_image_3</title>
<path fill="none" stroke="#333333" stroke-dasharray="5,2" d="M354,-178C354,-178 234,-178 234,-178 228,-178 222,-172 222,-166 222,-166 222,-154 222,-154 222,-148 228,-142 234,-142 234,-142 354,-142 354,-142 360,-142 366,-148 366,-154 366,-154 366,-166 366,-166 366,-172 360,-178 354,-178"/>
<text text-anchor="middle" x="294" y="-154.95" font-family="Times,serif" font-size="14.00" fill="#333333">scratch</text>
</g>
<!-- external_image_3&#45;&gt;stage_2 -->
<g id="edge7" class="edge">
<title>external_image_3&#45;&gt;stage_2</title>
<path fill="none" stroke="black" d="M325.2,-178.32C354.99,-196.4 400.69,-224.13 433.38,-243.96"/>
<polygon fill="black" stroke="black" points="431.29,-247.39 441.66,-249.59 434.92,-241.41 431.29,-247.39"/>
</g>
</g>
</svg>
