<?xml version="1.0" encoding="UTF-8" standalone="no"?>
<!DOCTYPE svg PUBLIC "-//W3C//DTD SVG 1.1//EN"
 "http://www.w3.org/Graphics/SVG/1.1/DTD/svg11.dtd">
<!-- Generated by graphviz version 7.1.0 (20230121.1956)
 -->
<!-- Title: G Pages: 1 -->
<svg width="1175pt" height="439pt"
 viewBox="0.00 0.00 1175.00 439.00" xmlns="http://www.w3.org/2000/svg" xmlns:xlink="http://www.w3.org/1999/xlink">
<g id="graph0" class="graph" transform="scale(1 1) rotate(0) translate(4 435)">
<title>G</title>
<polygon fill="white" stroke="none" points="-4,4 -4,-435 1171,-435 1171,4 -4,4"/>
<g id="clust1" class="cluster">
<title>cluster_stage_0</title>
<polygon fill="none" stroke="black" points="235.5,-8 235.5,-99 618,-99 618,-8 235.5,-8"/>
<text text-anchor="middle" x="426.75" y="-83.8" font-family="Times,serif" font-size="14.00">ubuntu</text>
</g>
<g id="clust2" class="cluster">
<title>cluster_stage_1</title>
<polygon fill="none" stroke="black" points="442,-332 442,-423 798,-423 798,-332 442,-332"/>
<text text-anchor="middle" x="620" y="-407.8" font-family="Times,serif" font-size="14.00">build</text>
</g>
<g id="clust3" class="cluster">
<title>cluster_stage_2</title>
<polygon fill="#e5e5e5" stroke="black" points="442,-116 442,-207 1159,-207 1159,-116 442,-116"/>
<text text-anchor="middle" x="800.5" y="-191.8" font-family="Times,serif" font-size="14.00">release</text>
</g>
<!-- stage_0_layer_0 -->
<g id="node1" class="node">
<title>stage_0_layer_0</title>
<path fill="white" stroke="black" stroke-width="0.5" d="M383.5,-60C383.5,-60 263.5,-60 263.5,-60 257.5,-60 251.5,-54 251.5,-48 251.5,-48 251.5,-36 251.5,-36 251.5,-30 257.5,-24 263.5,-24 263.5,-24 383.5,-24 383.5,-24 389.5,-24 395.5,-30 395.5,-36 395.5,-36 395.5,-48 395.5,-48 395.5,-54 389.5,-60 383.5,-60"/>
<text text-anchor="middle" x="323.5" y="-38.3" font-family="Times,serif" font-size="14.00">FROM ubuntu:lates...</text>
</g>
<!-- stage_0_layer_1 -->
<g id="node2" class="node">
<title>stage_0_layer_1</title>
<path fill="white" stroke="black" stroke-width="0.5" d="M590,-60C590,-60 470,-60 470,-60 464,-60 458,-54 458,-48 458,-48 458,-36 458,-36 458,-30 464,-24 470,-24 470,-24 590,-24 590,-24 596,-24 602,-30 602,-36 602,-36 602,-48 602,-48 602,-54 596,-60 590,-60"/>
<text text-anchor="middle" x="530" y="-38.3" font-family="Times,serif" font-size="14.00">RUN &#160;&#160;apt&#45;get upd...</text>
</g>
<!-- stage_0_layer_0&#45;&gt;stage_0_layer_1 -->
<g id="edge1" class="edge">
<title>stage_0_layer_0&#45;&gt;stage_0_layer_1</title>
<path fill="none" stroke="black" d="M395.45,-42C412.11,-42 429.99,-42 447.08,-42"/>
<polygon fill="black" stroke="black" points="446.66,-45.5 456.66,-42 446.66,-38.5 446.66,-45.5"/>
</g>
<!-- stage_2_layer_1 -->
<g id="node9" class="node">
<title>stage_2_layer_1</title>
<path fill="white" stroke="black" stroke-width="0.5" d="M770,-168C770,-168 650,-168 650,-168 644,-168 638,-162 638,-156 638,-156 638,-144 638,-144 638,-138 644,-132 650,-132 650,-132 770,-132 770,-132 776,-132 782,-138 782,-144 782,-144 782,-156 782,-156 782,-162 776,-168 770,-168"/>
<text text-anchor="middle" x="710" y="-146.3" font-family="Times,serif" font-size="14.00">COPY &#45;&#45;from=ubunt...</text>
</g>
<!-- stage_0_layer_1&#45;&gt;stage_2_layer_1 -->
<g id="edge10" class="edge">
<title>stage_0_layer_1&#45;&gt;stage_2_layer_1</title>
<path fill="none" stroke="black" stroke-dasharray="5,2" d="M618,-94.79C636.16,-105.8 654.43,-116.89 669.78,-126.21"/>
<polygon fill="none" stroke="black" points="667.9,-129.16 678.27,-131.35 671.54,-123.17 667.9,-129.16"/>
</g>
<!-- external_image_0 -->
<g id="node3" class="node">
<title>external_image_0</title>
<path fill="none" stroke="#333333" stroke-dasharray="5,2" d="M177,-60C177,-60 12,-60 12,-60 6,-60 0,-54 0,-48 0,-48 0,-36 0,-36 0,-30 6,-24 12,-24 12,-24 177,-24 177,-24 183,-24 189,-30 189,-36 189,-36 189,-48 189,-48 189,-54 183,-60 177,-60"/>
<text text-anchor="middle" x="94.5" y="-38.3" font-family="Times,serif" font-size="14.00" fill="#333333">ubuntu:latest...34594887c2c7ac</text>
</g>
<!-- external_image_0&#45;&gt;stage_0_layer_0 -->
<g id="edge2" class="edge">
<title>external_image_0&#45;&gt;stage_0_layer_0</title>
<path fill="none" stroke="black" d="M189.47,-42C206.41,-42 223.96,-42 240.53,-42"/>
<polygon fill="black" stroke="black" points="240.32,-45.5 250.31,-42 240.31,-38.5 240.32,-45.5"/>
</g>
<!-- stage_1_layer_0 -->
<g id="node4" class="node">
<title>stage_1_layer_0</title>
<path fill="white" stroke="black" stroke-width="0.5" d="M590,-384C590,-384 470,-384 470,-384 464,-384 458,-378 458,-372 458,-372 458,-360 458,-360 458,-354 464,-348 470,-348 470,-348 590,-348 590,-348 596,-348 602,-354 602,-360 602,-360 602,-372 602,-372 602,-378 596,-384 590,-384"/>
<text text-anchor="middle" x="530" y="-362.3" font-family="Times,serif" font-size="14.00">FROM golang:1.18....</text>
</g>
<!-- stage_1_layer_1 -->
<g id="node5" class="node">
<title>stage_1_layer_1</title>
<path fill="white" stroke="black" stroke-width="0.5" d="M770,-384C770,-384 650,-384 650,-384 644,-384 638,-378 638,-372 638,-372 638,-360 638,-360 638,-354 644,-348 650,-348 650,-348 770,-348 770,-348 776,-348 782,-354 782,-360 782,-360 782,-372 782,-372 782,-378 776,-384 770,-384"/>
<text text-anchor="middle" x="710" y="-362.3" font-family="Times,serif" font-size="14.00">RUN &#45;&#45;mount=type=...</text>
</g>
<!-- stage_1_layer_0&#45;&gt;stage_1_layer_1 -->
<g id="edge3" class="edge">
<title>stage_1_layer_0&#45;&gt;stage_1_layer_1</title>
<path fill="none" stroke="black" d="M601.86,-366C610.06,-366 618.47,-366 626.81,-366"/>
<polygon fill="black" stroke="black" points="626.58,-369.5 636.58,-366 626.58,-362.5 626.58,-369.5"/>
</g>
<!-- stage_2_layer_2 -->
<g id="node10" class="node">
<title>stage_2_layer_2</title>
<path fill="white" stroke="black" stroke-width="0.5" d="M950,-168C950,-168 830,-168 830,-168 824,-168 818,-162 818,-156 818,-156 818,-144 818,-144 818,-138 824,-132 830,-132 830,-132 950,-132 950,-132 956,-132 962,-138 962,-144 962,-144 962,-156 962,-156 962,-162 956,-168 950,-168"/>
<text text-anchor="middle" x="890" y="-146.3" font-family="Times,serif" font-size="14.00">COPY &#45;&#45;from=build...</text>
</g>
<!-- stage_1_layer_1&#45;&gt;stage_2_layer_2 -->
<g id="edge11" class="edge">
<title>stage_1_layer_1&#45;&gt;stage_2_layer_2</title>
<path fill="none" stroke="black" stroke-dasharray="5,2" d="M739.01,-332C774.42,-289.05 834.62,-215.99 866.94,-176.77"/>
<polygon fill="none" stroke="black" points="869.61,-179.03 873.27,-169.09 864.21,-174.58 869.61,-179.03"/>
</g>
<!-- external_image_1 -->
<g id="node6" class="node">
<title>external_image_1</title>
<path fill="none" stroke="#333333" stroke-dasharray="5,2" d="M410,-384C410,-384 237,-384 237,-384 231,-384 225,-378 225,-372 225,-372 225,-360 225,-360 225,-354 231,-348 237,-348 237,-348 410,-348 410,-348 416,-348 422,-354 422,-360 422,-360 422,-372 422,-372 422,-378 416,-384 410,-384"/>
<text text-anchor="middle" x="323.5" y="-362.3" font-family="Times,serif" font-size="14.00" fill="#333333">golang:1.18.4...26796b738433da</text>
</g>
<!-- external_image_1&#45;&gt;stage_1_layer_0 -->
<g id="edge4" class="edge">
<title>external_image_1&#45;&gt;stage_1_layer_0</title>
<path fill="none" stroke="black" d="M422.26,-366C430.49,-366 438.77,-366 446.87,-366"/>
<polygon fill="black" stroke="black" points="446.67,-369.5 456.67,-366 446.67,-362.5 446.67,-369.5"/>
</g>
<!-- external_image_2 -->
<g id="node7" class="node">
<title>external_image_2</title>
<path fill="none" stroke="#333333" stroke-dasharray="5,2" d="M590,-276C590,-276 470,-276 470,-276 464,-276 458,-270 458,-264 458,-264 458,-252 458,-252 458,-246 464,-240 470,-240 470,-240 590,-240 590,-240 596,-240 602,-246 602,-252 602,-252 602,-264 602,-264 602,-270 596,-276 590,-276"/>
<text text-anchor="middle" x="530" y="-254.3" font-family="Times,serif" font-size="14.00" fill="#333333">buildcache</text>
</g>
<!-- external_image_2&#45;&gt;stage_1_layer_1 -->
<g id="edge5" class="edge">
<title>external_image_2&#45;&gt;stage_1_layer_1</title>
<path fill="none" stroke="black" stroke-dasharray="1,5" d="M561.2,-276.32C590.74,-294.25 635.94,-321.67 668.57,-341.47"/>
<polygon fill="none" stroke="black" points="668.52,-341.44 675.72,-341.13 678.78,-347.66 671.57,-347.97 668.52,-341.44"/>
</g>
<!-- stage_2_layer_0 -->
<g id="node8" class="node">
<title>stage_2_layer_0</title>
<path fill="white" stroke="black" stroke-width="0.5" d="M590,-168C590,-168 470,-168 470,-168 464,-168 458,-162 458,-156 458,-156 458,-144 458,-144 458,-138 464,-132 470,-132 470,-132 590,-132 590,-132 596,-132 602,-138 602,-144 602,-144 602,-156 602,-156 602,-162 596,-168 590,-168"/>
<text text-anchor="middle" x="530" y="-146.3" font-family="Times,serif" font-size="14.00">FROM scratch AS r...</text>
</g>
<!-- stage_2_layer_0&#45;&gt;stage_2_layer_1 -->
<g id="edge6" class="edge">
<title>stage_2_layer_0&#45;&gt;stage_2_layer_1</title>
<path fill="none" stroke="black" d="M601.86,-150C610.06,-150 618.47,-150 626.81,-150"/>
<polygon fill="black" stroke="black" points="626.58,-153.5 636.58,-150 626.58,-146.5 626.58,-153.5"/>
</g>
<!-- stage_2_layer_1&#45;&gt;stage_2_layer_2 -->
<g id="edge7" class="edge">
<title>stage_2_layer_1&#45;&gt;stage_2_layer_2</title>
<path fill="none" stroke="black" d="M781.86,-150C790.06,-150 798.47,-150 806.81,-150"/>
<polygon fill="black" stroke="black" points="806.58,-153.5 816.58,-150 806.58,-146.5 806.58,-153.5"/>
</g>
<!-- stage_2_layer_3 -->
<g id="node11" class="node">
<title>stage_2_layer_3</title>
<path fill="white" stroke="black" stroke-width="0.5" d="M1131,-168C1131,-168 1010,-168 1010,-168 1004,-168 998,-162 998,-156 998,-156 998,-144 998,-144 998,-138 1004,-132 1010,-132 1010,-132 1131,-132 1131,-132 1137,-132 1143,-138 1143,-144 1143,-144 1143,-156 1143,-156 1143,-162 1137,-168 1131,-168"/>
<text text-anchor="middle" x="1070.5" y="-146.3" font-family="Times,serif" font-size="14.00">ENTRYPOINT [&#39;/exa...</text>
</g>
<!-- stage_2_layer_2&#45;&gt;stage_2_layer_3 -->
<g id="edge8" class="edge">
<title>stage_2_layer_2&#45;&gt;stage_2_layer_3</title>
<path fill="none" stroke="black" d="M961.8,-150C970.04,-150 978.49,-150 986.86,-150"/>
<polygon fill="black" stroke="black" points="986.68,-153.5 996.68,-150 986.68,-146.5 986.68,-153.5"/>
</g>
<!-- external_image_3 -->
<g id="node12" class="node">
<title>external_image_3</title>
<path fill="none" stroke="#333333" stroke-dasharray="5,2" d="M383.5,-168C383.5,-168 263.5,-168 263.5,-168 257.5,-168 251.5,-162 251.5,-156 251.5,-156 251.5,-144 251.5,-144 251.5,-138 257.5,-132 263.5,-132 263.5,-132 383.5,-132 383.5,-132 389.5,-132 395.5,-138 395.5,-144 395.5,-144 395.5,-156 395.5,-156 395.5,-162 389.5,-168 383.5,-168"/>
<text text-anchor="middle" x="323.5" y="-146.3" font-family="Times,serif" font-size="14.00" fill="#333333">scratch</text>
</g>
<!-- external_image_3&#45;&gt;stage_2_layer_0 -->
<g id="edge9" class="edge">
<title>external_image_3&#45;&gt;stage_2_layer_0</title>
<path fill="none" stroke="black" d="M395.74,-150C412.13,-150 429.69,-150 446.51,-150"/>
<polygon fill="black" stroke="black" points="446.5,-153.5 456.5,-150 446.5,-146.5 446.5,-153.5"/>
</g>
</g>
</svg>
