<?xml version="1.0" encoding="UTF-8" standalone="no"?>
<!DOCTYPE svg PUBLIC "-//W3C//DTD SVG 1.1//EN"
 "http://www.w3.org/Graphics/SVG/1.1/DTD/svg11.dtd">
<!-- Generated by graphviz version 13.1.0 (20250701.0955)
 -->
<!-- Title: G Pages: 1 -->
<svg width="1076pt" height="441pt"
 viewBox="0.00 0.00 1076.00 441.00" xmlns="http://www.w3.org/2000/svg" xmlns:xlink="http://www.w3.org/1999/xlink">
<g id="graph0" class="graph" transform="scale(1 1) rotate(0) translate(4 437)">
<title>G</title>
<polygon fill="white" stroke="none" points="-4,4 -4,-437 1072.25,-437 1072.25,4 -4,4"/>
<g id="clust1" class="cluster">
<title>cluster_stage_0</title>
<polygon fill="none" stroke="black" points="164,-8 164,-101 520,-101 520,-8 164,-8"/>
<text xml:space="preserve" text-anchor="middle" x="342" y="-83.7" font-family="Times,serif" font-size="14.00">ubuntu</text>
</g>
<g id="clust2" class="cluster">
<title>cluster_stage_1</title>
<polygon fill="none" stroke="black" points="344,-332 344,-425 700,-425 700,-332 344,-332"/>
<text xml:space="preserve" text-anchor="middle" x="522" y="-407.7" font-family="Times,serif" font-size="14.00">build&#45;tool&#45;dependencies</text>
</g>
<g id="clust3" class="cluster">
<title>cluster_stage_2</title>
<polygon fill="#e5e5e5" stroke="black" points="344,-116 344,-209 1060.25,-209 1060.25,-116 344,-116"/>
<text xml:space="preserve" text-anchor="middle" x="702.12" y="-191.7" font-family="Times,serif" font-size="14.00">release</text>
</g>
<!-- stage_0_layer_0 -->
<g id="node1" class="node">
<title>stage_0_layer_0</title>
<path fill="white" stroke="black" stroke-width="0.5" d="M312,-60C312,-60 192,-60 192,-60 186,-60 180,-54 180,-48 180,-48 180,-36 180,-36 180,-30 186,-24 192,-24 192,-24 312,-24 312,-24 318,-24 324,-30 324,-36 324,-36 324,-48 324,-48 324,-54 318,-60 312,-60"/>
<text xml:space="preserve" text-anchor="middle" x="252" y="-36.95" font-family="Times,serif" font-size="14.00">FROM ubuntu:lates...</text>
</g>
<!-- stage_0_layer_1 -->
<g id="node2" class="node">
<title>stage_0_layer_1</title>
<path fill="white" stroke="black" stroke-width="0.5" d="M492,-60C492,-60 372,-60 372,-60 366,-60 360,-54 360,-48 360,-48 360,-36 360,-36 360,-30 366,-24 372,-24 372,-24 492,-24 492,-24 498,-24 504,-30 504,-36 504,-36 504,-48 504,-48 504,-54 498,-60 492,-60"/>
<text xml:space="preserve" text-anchor="middle" x="432" y="-36.95" font-family="Times,serif" font-size="14.00">RUN apt&#45;get updat...</text>
</g>
<!-- stage_0_layer_0&#45;&gt;stage_0_layer_1 -->
<g id="edge1" class="edge">
<title>stage_0_layer_0&#45;&gt;stage_0_layer_1</title>
<path fill="none" stroke="black" d="M324.12,-42C332.15,-42 340.38,-42 348.54,-42"/>
<polygon fill="black" stroke="black" points="348.48,-45.5 358.48,-42 348.48,-38.5 348.48,-45.5"/>
</g>
<!-- stage_2_layer_1 -->
<g id="node9" class="node">
<title>stage_2_layer_1</title>
<path fill="white" stroke="black" stroke-width="0.5" d="M672,-168C672,-168 552,-168 552,-168 546,-168 540,-162 540,-156 540,-156 540,-144 540,-144 540,-138 546,-132 552,-132 552,-132 672,-132 672,-132 678,-132 684,-138 684,-144 684,-144 684,-156 684,-156 684,-162 678,-168 672,-168"/>
<text xml:space="preserve" text-anchor="middle" x="612" y="-144.95" font-family="Times,serif" font-size="14.00">COPY &#45;&#45;from=ubunt...</text>
</g>
<!-- stage_0_layer_1&#45;&gt;stage_2_layer_1 -->
<g id="edge9" class="edge">
<title>stage_0_layer_1&#45;&gt;stage_2_layer_1</title>
<path fill="none" stroke="black" stroke-dasharray="5,2" d="M520,-94.79C538,-105.71 556.1,-116.69 571.37,-125.96"/>
<polygon fill="none" stroke="black" points="569.45,-128.88 579.82,-131.08 573.08,-122.9 569.45,-128.88"/>
</g>
<!-- external_image_0 -->
<g id="node3" class="node">
<title>external_image_0</title>
<path fill="none" stroke="#333333" stroke-dasharray="5,2" d="M132,-60C132,-60 12,-60 12,-60 6,-60 0,-54 0,-48 0,-48 0,-36 0,-36 0,-30 6,-24 12,-24 12,-24 132,-24 132,-24 138,-24 144,-30 144,-36 144,-36 144,-48 144,-48 144,-54 138,-60 132,-60"/>
<text xml:space="preserve" text-anchor="middle" x="72" y="-36.95" font-family="Times,serif" font-size="14.00" fill="#333333">ubuntu:l...887c2c7ac</text>
</g>
<!-- external_image_0&#45;&gt;stage_0_layer_0 -->
<g id="edge2" class="edge">
<title>external_image_0&#45;&gt;stage_0_layer_0</title>
<path fill="none" stroke="black" d="M144.37,-42C152.33,-42 160.48,-42 168.56,-42"/>
<polygon fill="black" stroke="black" points="168.39,-45.5 178.39,-42 168.39,-38.5 168.39,-45.5"/>
</g>
<!-- stage_1_layer_0 -->
<g id="node4" class="node">
<title>stage_1_layer_0</title>
<path fill="white" stroke="black" stroke-width="0.5" d="M492,-384C492,-384 372,-384 372,-384 366,-384 360,-378 360,-372 360,-372 360,-360 360,-360 360,-354 366,-348 372,-348 372,-348 492,-348 492,-348 498,-348 504,-354 504,-360 504,-360 504,-372 504,-372 504,-378 498,-384 492,-384"/>
<text xml:space="preserve" text-anchor="middle" x="432" y="-360.95" font-family="Times,serif" font-size="14.00">FROM golang:1.18....</text>
</g>
<!-- stage_1_layer_1 -->
<g id="node5" class="node">
<title>stage_1_layer_1</title>
<path fill="white" stroke="black" stroke-width="0.5" d="M672,-384C672,-384 552,-384 552,-384 546,-384 540,-378 540,-372 540,-372 540,-360 540,-360 540,-354 546,-348 552,-348 552,-348 672,-348 672,-348 678,-348 684,-354 684,-360 684,-360 684,-372 684,-372 684,-378 678,-384 672,-384"/>
<text xml:space="preserve" text-anchor="middle" x="612" y="-360.95" font-family="Times,serif" font-size="14.00">RUN &#45;&#45;mount=type=...</text>
</g>
<!-- stage_1_layer_0&#45;&gt;stage_1_layer_1 -->
<g id="edge3" class="edge">
<title>stage_1_layer_0&#45;&gt;stage_1_layer_1</title>
<path fill="none" stroke="black" d="M504.12,-366C512.15,-366 520.38,-366 528.54,-366"/>
<polygon fill="black" stroke="black" points="528.48,-369.5 538.48,-366 528.48,-362.5 528.48,-369.5"/>
</g>
<!-- stage_2_layer_2 -->
<g id="node10" class="node">
<title>stage_2_layer_2</title>
<path fill="white" stroke="black" stroke-width="0.5" d="M852,-168C852,-168 732,-168 732,-168 726,-168 720,-162 720,-156 720,-156 720,-144 720,-144 720,-138 726,-132 732,-132 732,-132 852,-132 852,-132 858,-132 864,-138 864,-144 864,-144 864,-156 864,-156 864,-162 858,-168 852,-168"/>
<text xml:space="preserve" text-anchor="middle" x="792" y="-144.95" font-family="Times,serif" font-size="14.00">COPY &#45;&#45;from=build...</text>
</g>
<!-- stage_1_layer_1&#45;&gt;stage_2_layer_2 -->
<g id="edge10" class="edge">
<title>stage_1_layer_1&#45;&gt;stage_2_layer_2</title>
<path fill="none" stroke="black" stroke-dasharray="5,2" d="M641.02,-332C676.35,-289.12 736.4,-216.26 768.76,-176.99"/>
<polygon fill="none" stroke="black" points="771.43,-179.26 775.08,-169.31 766.02,-174.8 771.43,-179.26"/>
</g>
<!-- external_image_1 -->
<g id="node6" class="node">
<title>external_image_1</title>
<path fill="none" stroke="#333333" stroke-dasharray="5,2" d="M312,-384C312,-384 192,-384 192,-384 186,-384 180,-378 180,-372 180,-372 180,-360 180,-360 180,-354 186,-348 192,-348 192,-348 312,-348 312,-348 318,-348 324,-354 324,-360 324,-360 324,-372 324,-372 324,-378 318,-384 312,-384"/>
<text xml:space="preserve" text-anchor="middle" x="252" y="-360.95" font-family="Times,serif" font-size="14.00" fill="#333333">golang:1...b738433da</text>
</g>
<!-- external_image_1&#45;&gt;stage_1_layer_0 -->
<g id="edge4" class="edge">
<title>external_image_1&#45;&gt;stage_1_layer_0</title>
<path fill="none" stroke="black" d="M324.37,-366C332.33,-366 340.48,-366 348.56,-366"/>
<polygon fill="black" stroke="black" points="348.39,-369.5 358.39,-366 348.39,-362.5 348.39,-369.5"/>
</g>
<!-- external_image_2 -->
<g id="node7" class="node">
<title>external_image_2</title>
<path fill="none" stroke="#333333" stroke-dasharray="5,2" d="M492,-276C492,-276 372,-276 372,-276 366,-276 360,-270 360,-264 360,-264 360,-252 360,-252 360,-246 366,-240 372,-240 372,-240 492,-240 492,-240 498,-240 504,-246 504,-252 504,-252 504,-264 504,-264 504,-270 498,-276 492,-276"/>
<text xml:space="preserve" text-anchor="middle" x="432" y="-252.95" font-family="Times,serif" font-size="14.00" fill="#333333">buildcache</text>
</g>
<!-- external_image_2&#45;&gt;stage_1_layer_1 -->
<g id="edge5" class="edge">
<title>external_image_2&#45;&gt;stage_1_layer_1</title>
<path fill="none" stroke="black" stroke-dasharray="1,5" d="M463.2,-276.32C492.56,-294.14 537.4,-321.34 569.98,-341.11"/>
<polygon fill="none" stroke="black" points="569.92,-341.08 577.13,-340.77 580.18,-347.3 572.98,-347.61 569.92,-341.08"/>
</g>
<!-- stage_2_layer_0 -->
<g id="node8" class="node">
<title>stage_2_layer_0</title>
<path fill="white" stroke="black" stroke-width="0.5" d="M492,-168C492,-168 372,-168 372,-168 366,-168 360,-162 360,-156 360,-156 360,-144 360,-144 360,-138 366,-132 372,-132 372,-132 492,-132 492,-132 498,-132 504,-138 504,-144 504,-144 504,-156 504,-156 504,-162 498,-168 492,-168"/>
<text xml:space="preserve" text-anchor="middle" x="432" y="-144.95" font-family="Times,serif" font-size="14.00">FROM scratch AS r...</text>
</g>
<!-- stage_2_layer_0&#45;&gt;stage_2_layer_1 -->
<g id="edge6" class="edge">
<title>stage_2_layer_0&#45;&gt;stage_2_layer_1</title>
<path fill="none" stroke="black" d="M504.12,-150C512.15,-150 520.38,-150 528.54,-150"/>
<polygon fill="black" stroke="black" points="528.48,-153.5 538.48,-150 528.48,-146.5 528.48,-153.5"/>
</g>
<!-- stage_2_layer_1&#45;&gt;stage_2_layer_2 -->
<g id="edge7" class="edge">
<title>stage_2_layer_1&#45;&gt;stage_2_layer_2</title>
<path fill="none" stroke="black" d="M684.12,-150C692.15,-150 700.38,-150 708.54,-150"/>
<polygon fill="black" stroke="black" points="708.48,-153.5 718.48,-150 708.48,-146.5 708.48,-153.5"/>
</g>
<!-- stage_2_layer_3 -->
<g id="node11" class="node">
<title>stage_2_layer_3</title>
<path fill="white" stroke="black" stroke-width="0.5" d="M1032.25,-168C1032.25,-168 912,-168 912,-168 906,-168 900,-162 900,-156 900,-156 900,-144 900,-144 900,-138 906,-132 912,-132 912,-132 1032.25,-132 1032.25,-132 1038.25,-132 1044.25,-138 1044.25,-144 1044.25,-144 1044.25,-156 1044.25,-156 1044.25,-162 1038.25,-168 1032.25,-168"/>
<text xml:space="preserve" text-anchor="middle" x="972.12" y="-144.95" font-family="Times,serif" font-size="14.00">ENTRYPOINT [&#39;/exa...</text>
</g>
<!-- stage_2_layer_2&#45;&gt;stage_2_layer_3 -->
<g id="edge8" class="edge">
<title>stage_2_layer_2&#45;&gt;stage_2_layer_3</title>
<path fill="none" stroke="black" d="M864.17,-150C872.14,-150 880.31,-150 888.4,-150"/>
<polygon fill="black" stroke="black" points="888.27,-153.5 898.27,-150 888.27,-146.5 888.27,-153.5"/>
</g>
</g>
</svg>
