<?xml version="1.0" encoding="UTF-8" standalone="no"?>
<!DOCTYPE svg PUBLIC "-//W3C//DTD SVG 1.1//EN"
 "http://www.w3.org/Graphics/SVG/1.1/DTD/svg11.dtd">
<!-- Generated by graphviz version 7.1.0 (20230121.1956)
 -->
<!-- Title: G Pages: 1 -->
<svg width="1232pt" height="552pt"
 viewBox="0.00 0.00 1232.00 552.00" xmlns="http://www.w3.org/2000/svg" xmlns:xlink="http://www.w3.org/1999/xlink">
<g id="graph0" class="graph" transform="scale(1 1) rotate(0) translate(4 548)">
<title>G</title>
<polygon fill="white" stroke="none" points="-4,4 -4,-548 1228,-548 1228,4 -4,4"/>
<!-- external_image_0 -->
<g id="node1" class="node">
<title>external_image_0</title>
<path fill="none" stroke="#333333" stroke-dasharray="5,2" d="M672,-544C672,-544 552,-544 552,-544 546,-544 540,-538 540,-532 540,-532 540,-520 540,-520 540,-514 546,-508 552,-508 552,-508 672,-508 672,-508 678,-508 684,-514 684,-520 684,-520 684,-532 684,-532 684,-538 678,-544 672,-544"/>
<text text-anchor="middle" x="612" y="-522.3" font-family="Times,serif" font-size="14.00" fill="#333333">scratch</text>
</g>
<!-- stage_0 -->
<g id="node2" class="node">
<title>stage_0</title>
<path fill="none" stroke="black" d="M852,-353C852,-353 732,-353 732,-353 726,-353 720,-347 720,-341 720,-341 720,-329 720,-329 720,-323 726,-317 732,-317 732,-317 852,-317 852,-317 858,-317 864,-323 864,-329 864,-329 864,-341 864,-341 864,-347 858,-353 852,-353"/>
<text text-anchor="middle" x="792" y="-331.3" font-family="Times,serif" font-size="14.00">base</text>
</g>
<!-- external_image_0&#45;&gt;stage_0 -->
<g id="edge1" class="edge">
<title>external_image_0&#45;&gt;stage_0</title>
<path fill="none" stroke="black" d="M631.63,-507.58C646.09,-493.17 666.55,-472.53 684,-454 713.35,-422.84 746.13,-386.08 767.58,-361.75"/>
<polygon fill="black" stroke="black" points="769.96,-364.34 773.94,-354.52 764.71,-359.71 769.96,-364.34"/>
</g>
<!-- stage_1 -->
<g id="node3" class="node">
<title>stage_1</title>
<path fill="none" stroke="black" d="M1032,-299C1032,-299 912,-299 912,-299 906,-299 900,-293 900,-287 900,-287 900,-275 900,-275 900,-269 906,-263 912,-263 912,-263 1032,-263 1032,-263 1038,-263 1044,-269 1044,-275 1044,-275 1044,-287 1044,-287 1044,-293 1038,-299 1032,-299"/>
<text text-anchor="middle" x="972" y="-277.3" font-family="Times,serif" font-size="14.00">build</text>
</g>
<!-- stage_0&#45;&gt;stage_1 -->
<g id="edge2" class="edge">
<title>stage_0&#45;&gt;stage_1</title>
<path fill="none" stroke="black" d="M853.76,-316.57C868.43,-312.12 884.24,-307.32 899.35,-302.74"/>
<polygon fill="black" stroke="black" points="900.21,-306.13 908.76,-299.88 898.18,-299.43 900.21,-306.13"/>
</g>
<!-- stage_2 -->
<g id="node11" class="node">
<title>stage_2</title>
<path fill="#e5e5e5" stroke="black" d="M1212,-245C1212,-245 1092,-245 1092,-245 1086,-245 1080,-239 1080,-233 1080,-233 1080,-221 1080,-221 1080,-215 1086,-209 1092,-209 1092,-209 1212,-209 1212,-209 1218,-209 1224,-215 1224,-221 1224,-221 1224,-233 1224,-233 1224,-239 1218,-245 1212,-245"/>
<text text-anchor="middle" x="1152" y="-223.3" font-family="Times,serif" font-size="14.00">final</text>
</g>
<!-- stage_1&#45;&gt;stage_2 -->
<g id="edge10" class="edge">
<title>stage_1&#45;&gt;stage_2</title>
<path fill="none" stroke="black" d="M1033.76,-262.57C1048.43,-258.12 1064.24,-253.32 1079.35,-248.74"/>
<polygon fill="black" stroke="black" points="1080.21,-252.13 1088.76,-245.88 1078.18,-245.43 1080.21,-252.13"/>
</g>
<!-- external_image_1 -->
<g id="node4" class="node">
<title>external_image_1</title>
<path fill="none" stroke="#333333" stroke-dasharray="5,2" d="M492,-544C492,-544 372,-544 372,-544 366,-544 360,-538 360,-532 360,-532 360,-520 360,-520 360,-514 366,-508 372,-508 372,-508 492,-508 492,-508 498,-508 504,-514 504,-520 504,-520 504,-532 504,-532 504,-538 498,-544 492,-544"/>
<text text-anchor="middle" x="432" y="-522.3" font-family="Times,serif" font-size="14.00" fill="#333333">external_0</text>
</g>
<!-- external_image_1&#45;&gt;stage_0 -->
<g id="edge3" class="edge">
<title>external_image_1&#45;&gt;stage_0</title>
<path fill="none" stroke="black" stroke-dasharray="5,2" d="M451.2,-507.52C481.32,-478.33 544.8,-422.45 611,-399"/>
</g>
<!-- external_image_2 -->
<g id="node5" class="node">
<title>external_image_2</title>
<path fill="none" stroke="#333333" stroke-dasharray="5,2" d="M312,-417C312,-417 192,-417 192,-417 186,-417 180,-411 180,-405 180,-405 180,-393 180,-393 180,-387 186,-381 192,-381 192,-381 312,-381 312,-381 318,-381 324,-387 324,-393 324,-393 324,-405 324,-405 324,-411 318,-417 312,-417"/>
<text text-anchor="middle" x="252" y="-395.3" font-family="Times,serif" font-size="14.00" fill="#333333">external_1</text>
</g>
<!-- external_image_2&#45;&gt;stage_0 -->
<g id="edge4" class="edge">
<title>external_image_2&#45;&gt;stage_0</title>
<path fill="none" stroke="black" stroke-dasharray="5,2" d="M324.49,-393.51C357.18,-392.4 396.28,-393.05 431,-399"/>
</g>
<!-- external_image_3 -->
<g id="node6" class="node">
<title>external_image_3</title>
<path fill="none" stroke="#333333" stroke-dasharray="5,2" d="M132,-290C132,-290 12,-290 12,-290 6,-290 0,-284 0,-278 0,-278 0,-266 0,-266 0,-260 6,-254 12,-254 12,-254 132,-254 132,-254 138,-254 144,-260 144,-266 144,-266 144,-278 144,-278 144,-284 138,-290 132,-290"/>
<text text-anchor="middle" x="72" y="-268.3" font-family="Times,serif" font-size="14.00" fill="#333333">external_2</text>
</g>
<!-- external_image_3&#45;&gt;stage_0 -->
<g id="edge5" class="edge">
<title>external_image_3&#45;&gt;stage_0</title>
<path fill="none" stroke="black" stroke-dasharray="5,2" d="M613,-399C651.69,-385.3 695.02,-369.72 729.25,-357.37"/>
<polygon fill="none" stroke="black" points="730.38,-360.68 738.6,-353.99 728,-354.09 730.38,-360.68"/>
<path fill="none" stroke="black" stroke-dasharray="5,2" d="M433,-399C510.98,-412.35 536.43,-425.41 611,-399"/>
<path fill="none" stroke="black" stroke-dasharray="5,2" d="M144.49,-289.04C195.36,-302.07 264.89,-321.72 324,-345 373.56,-364.52 378.5,-390.01 431,-399"/>
</g>
<!-- external_image_4 -->
<g id="node7" class="node">
<title>external_image_4</title>
<path fill="none" stroke="#333333" stroke-dasharray="5,2" d="M672,-290C672,-290 552,-290 552,-290 546,-290 540,-284 540,-278 540,-278 540,-266 540,-266 540,-260 546,-254 552,-254 552,-254 672,-254 672,-254 678,-254 684,-260 684,-266 684,-266 684,-278 684,-278 684,-284 678,-290 672,-290"/>
<text text-anchor="middle" x="612" y="-268.3" font-family="Times,serif" font-size="14.00" fill="#333333">external_3</text>
</g>
<!-- external_image_4&#45;&gt;stage_0 -->
<g id="edge6" class="edge">
<title>external_image_4&#45;&gt;stage_0</title>
<path fill="none" stroke="black" stroke-dasharray="5,2" d="M664.96,-290.39C684.8,-297.41 707.62,-305.49 728.35,-312.83"/>
<polygon fill="none" stroke="black" points="726.95,-316.04 737.55,-316.08 729.29,-309.44 726.95,-316.04"/>
</g>
<!-- external_image_5 -->
<g id="node8" class="node">
<title>external_image_5</title>
<path fill="none" stroke="#333333" stroke-dasharray="5,2" d="M492,-290C492,-290 372,-290 372,-290 366,-290 360,-284 360,-278 360,-278 360,-266 360,-266 360,-260 366,-254 372,-254 372,-254 492,-254 492,-254 498,-254 504,-260 504,-266 504,-266 504,-278 504,-278 504,-284 498,-290 492,-290"/>
<text text-anchor="middle" x="432" y="-268.3" font-family="Times,serif" font-size="14.00" fill="#333333">external_4</text>
</g>
<!-- external_image_5&#45;&gt;stage_0 -->
<g id="edge7" class="edge">
<title>external_image_5&#45;&gt;stage_0</title>
<path fill="none" stroke="black" stroke-dasharray="5,2" d="M450.93,-253.76C488.4,-216.57 574.56,-136.21 611,-145"/>
</g>
<!-- external_image_6 -->
<g id="node9" class="node">
<title>external_image_6</title>
<path fill="none" stroke="#333333" stroke-dasharray="5,2" d="M312,-163C312,-163 192,-163 192,-163 186,-163 180,-157 180,-151 180,-151 180,-139 180,-139 180,-133 186,-127 192,-127 192,-127 312,-127 312,-127 318,-127 324,-133 324,-139 324,-139 324,-151 324,-151 324,-157 318,-163 312,-163"/>
<text text-anchor="middle" x="252" y="-141.3" font-family="Times,serif" font-size="14.00" fill="#333333">external_5</text>
</g>
<!-- external_image_6&#45;&gt;stage_0 -->
<g id="edge8" class="edge">
<title>external_image_6&#45;&gt;stage_0</title>
<path fill="none" stroke="black" stroke-dasharray="5,2" d="M324.49,-139.51C357.18,-138.4 396.28,-139.05 431,-145"/>
</g>
<!-- external_image_7 -->
<g id="node10" class="node">
<title>external_image_7</title>
<path fill="none" stroke="#333333" stroke-dasharray="5,2" d="M132,-36C132,-36 12,-36 12,-36 6,-36 0,-30 0,-24 0,-24 0,-12 0,-12 0,-6 6,0 12,0 12,0 132,0 132,0 138,0 144,-6 144,-12 144,-12 144,-24 144,-24 144,-30 138,-36 132,-36"/>
<text text-anchor="middle" x="72" y="-14.3" font-family="Times,serif" font-size="14.00" fill="#333333">external_6</text>
</g>
<!-- external_image_7&#45;&gt;stage_0 -->
<g id="edge9" class="edge">
<title>external_image_7&#45;&gt;stage_0</title>
<path fill="none" stroke="black" stroke-dasharray="5,2" d="M613,-145C657,-155.61 656.78,-181.84 684,-218 703.4,-243.76 698.74,-256.75 720,-281 729.33,-291.64 741.05,-301.57 752.26,-309.94"/>
<polygon fill="none" stroke="black" points="750.11,-312.7 760.27,-315.69 754.2,-307.01 750.11,-312.7"/>
<path fill="none" stroke="black" stroke-dasharray="5,2" d="M433,-145C510.98,-158.35 534.09,-126.45 611,-145"/>
<path fill="none" stroke="black" stroke-dasharray="5,2" d="M144.49,-35.04C195.36,-48.07 264.89,-67.72 324,-91 373.56,-110.52 378.5,-136.01 431,-145"/>
</g>
<!-- external_image_8 -->
<g id="node12" class="node">
<title>external_image_8</title>
<path fill="none" stroke="#333333" stroke-dasharray="5,2" d="M852,-245C852,-245 732,-245 732,-245 726,-245 720,-239 720,-233 720,-233 720,-221 720,-221 720,-215 726,-209 732,-209 732,-209 852,-209 852,-209 858,-209 864,-215 864,-221 864,-221 864,-233 864,-233 864,-239 858,-245 852,-245"/>
<text text-anchor="middle" x="792" y="-223.3" font-family="Times,serif" font-size="14.00" fill="#333333">buildcache</text>
</g>
<!-- external_image_8&#45;&gt;stage_1 -->
<g id="edge11" class="edge">
<title>external_image_8&#45;&gt;stage_1</title>
<path fill="none" stroke="black" stroke-dasharray="1,5" d="M853.76,-245.43C868,-249.75 883.32,-254.4 898.03,-258.86"/>
<polygon fill="none" stroke="black" points="897.87,-258.81 904.77,-256.73 909.35,-262.3 902.45,-264.38 897.87,-258.81"/>
</g>
<!-- external_image_9 -->
<g id="node13" class="node">
<title>external_image_9</title>
<path fill="none" stroke="#333333" stroke-dasharray="5,2" d="M1032,-191C1032,-191 912,-191 912,-191 906,-191 900,-185 900,-179 900,-179 900,-167 900,-167 900,-161 906,-155 912,-155 912,-155 1032,-155 1032,-155 1038,-155 1044,-161 1044,-167 1044,-167 1044,-179 1044,-179 1044,-185 1038,-191 1032,-191"/>
<text text-anchor="middle" x="972" y="-169.3" font-family="Times,serif" font-size="14.00" fill="#333333">supplemental</text>
</g>
<!-- external_image_9&#45;&gt;stage_2 -->
<g id="edge12" class="edge">
<title>external_image_9&#45;&gt;stage_2</title>
<path fill="none" stroke="black" stroke-dasharray="5,2" d="M1033.76,-191.43C1048.43,-195.88 1064.24,-200.68 1079.35,-205.26"/>
<polygon fill="none" stroke="black" points="1078.18,-208.57 1088.76,-208.12 1080.21,-201.87 1078.18,-208.57"/>
</g>
</g>
</svg>
