<?xml version="1.0" encoding="UTF-8" standalone="no"?>
<!DOCTYPE svg PUBLIC "-//W3C//DTD SVG 1.1//EN"
 "http://www.w3.org/Graphics/SVG/1.1/DTD/svg11.dtd">
<!-- Generated by graphviz version 7.1.0 (20230121.1956)
 -->
<!-- Title: G Pages: 1 -->
<svg width="1052pt" height="777pt"
 viewBox="0.00 0.00 1052.00 776.93" xmlns="http://www.w3.org/2000/svg" xmlns:xlink="http://www.w3.org/1999/xlink">
<g id="graph0" class="graph" transform="scale(1 1) rotate(0) translate(4 772.93)">
<title>G</title>
<polygon fill="white" stroke="none" points="-4,4 -4,-772.93 1048,-772.93 1048,4 -4,4"/>
<!-- external_image_0 -->
<g id="node1" class="node">
<title>external_image_0</title>
<path fill="none" stroke="#333333" stroke-dasharray="5,2" d="M312,-730C312,-730 192,-730 192,-730 186,-730 180,-724 180,-718 180,-718 180,-706 180,-706 180,-700 186,-694 192,-694 192,-694 312,-694 312,-694 318,-694 324,-700 324,-706 324,-706 324,-718 324,-718 324,-724 318,-730 312,-730"/>
<text text-anchor="middle" x="252" y="-708.3" font-family="Times,serif" font-size="14.00" fill="#333333">ubuntu:22.04</text>
</g>
<!-- stage_0 -->
<g id="node2" class="node">
<title>stage_0</title>
<path fill="none" stroke="black" d="M492,-730C492,-730 372,-730 372,-730 366,-730 360,-724 360,-718 360,-718 360,-706 360,-706 360,-700 366,-694 372,-694 372,-694 492,-694 492,-694 498,-694 504,-700 504,-706 504,-706 504,-718 504,-718 504,-724 498,-730 492,-730"/>
<text text-anchor="middle" x="432" y="-708.3" font-family="Times,serif" font-size="14.00">ubuntu_amd64</text>
</g>
<!-- external_image_0&#45;&gt;stage_0 -->
<g id="edge1" class="edge">
<title>external_image_0&#45;&gt;stage_0</title>
<path fill="none" stroke="black" d="M324.37,-712C332.26,-712 340.34,-712 348.36,-712"/>
<polygon fill="black" stroke="black" points="348.1,-715.5 358.1,-712 348.1,-708.5 348.1,-715.5"/>
</g>
<!-- stage_1 -->
<g id="node3" class="node">
<title>stage_1</title>
<path fill="none" stroke="black" d="M492,-672C492,-672 372,-672 372,-672 366,-672 360,-666 360,-660 360,-660 360,-648 360,-648 360,-642 366,-636 372,-636 372,-636 492,-636 492,-636 498,-636 504,-642 504,-648 504,-648 504,-660 504,-660 504,-666 498,-672 492,-672"/>
<text text-anchor="middle" x="432" y="-650.3" font-family="Times,serif" font-size="14.00">ubuntu_arm64</text>
</g>
<!-- external_image_0&#45;&gt;stage_1 -->
<g id="edge2" class="edge">
<title>external_image_0&#45;&gt;stage_1</title>
<path fill="none" stroke="black" d="M309.32,-693.65C326.53,-688.04 345.63,-681.82 363.5,-676"/>
<polygon fill="black" stroke="black" points="364.57,-679.33 373,-672.9 362.4,-672.67 364.57,-679.33"/>
</g>
<!-- stage_2 -->
<g id="node4" class="node">
<title>stage_2</title>
<path fill="none" stroke="black" d="M672,-701C672,-701 552,-701 552,-701 546,-701 540,-695 540,-689 540,-689 540,-677 540,-677 540,-671 546,-665 552,-665 552,-665 672,-665 672,-665 678,-665 684,-671 684,-677 684,-677 684,-689 684,-689 684,-695 678,-701 672,-701"/>
<text text-anchor="middle" x="612" y="-679.3" font-family="Times,serif" font-size="14.00">ubuntu_with_amd64...</text>
</g>
<!-- external_image_0&#45;&gt;stage_2 -->
<g id="edge3" class="edge">
<title>external_image_0&#45;&gt;stage_2</title>
<path fill="none" stroke="black" d="M294.1,-730.48C329.56,-744.83 382.57,-762.55 431,-764"/>
<path fill="none" stroke="black" d="M433,-764C488.22,-765.65 545.15,-732.49 579.31,-708.09"/>
<polygon fill="black" stroke="black" points="581.11,-711.11 587.1,-702.38 576.97,-705.47 581.11,-711.11"/>
</g>
<!-- stage_5 -->
<g id="node5" class="node">
<title>stage_5</title>
<path fill="none" stroke="black" d="M852,-458C852,-458 732,-458 732,-458 726,-458 720,-452 720,-446 720,-446 720,-434 720,-434 720,-428 726,-422 732,-422 732,-422 852,-422 852,-422 858,-422 864,-428 864,-434 864,-434 864,-446 864,-446 864,-452 858,-458 852,-458"/>
<text text-anchor="middle" x="792" y="-436.3" font-family="Times,serif" font-size="14.00">build_buildplatform</text>
</g>
<!-- external_image_0&#45;&gt;stage_5 -->
<g id="edge4" class="edge">
<title>external_image_0&#45;&gt;stage_5</title>
<path fill="none" stroke="black" d="M433,-764C546.87,-767.41 596.88,-785.4 684,-712 759.02,-648.79 781.75,-525.94 788.39,-469.57"/>
<polygon fill="black" stroke="black" points="791.85,-470.11 789.44,-459.79 784.89,-469.36 791.85,-470.11"/>
</g>
<!-- stage_0&#45;&gt;stage_2 -->
<g id="edge5" class="edge">
<title>stage_0&#45;&gt;stage_2</title>
<path fill="none" stroke="black" stroke-dasharray="5,2" d="M504.37,-700.37C512.26,-699.09 520.34,-697.77 528.36,-696.46"/>
<polygon fill="none" stroke="black" points="528.81,-699.94 538.12,-694.87 527.68,-693.03 528.81,-699.94"/>
</g>
<!-- stage_1&#45;&gt;stage_2 -->
<g id="edge7" class="edge">
<title>stage_1&#45;&gt;stage_2</title>
<path fill="none" stroke="black" stroke-dasharray="5,2" d="M504.37,-665.63C512.26,-666.91 520.34,-668.23 528.36,-669.54"/>
<polygon fill="none" stroke="black" points="527.68,-672.97 538.12,-671.13 528.81,-666.06 527.68,-672.97"/>
</g>
<!-- stage_4 -->
<g id="node6" class="node">
<title>stage_4</title>
<path fill="none" stroke="black" d="M852,-400C852,-400 732,-400 732,-400 726,-400 720,-394 720,-388 720,-388 720,-376 720,-376 720,-370 726,-364 732,-364 732,-364 852,-364 852,-364 858,-364 864,-370 864,-376 864,-376 864,-388 864,-388 864,-394 858,-400 852,-400"/>
<text text-anchor="middle" x="792" y="-378.3" font-family="Times,serif" font-size="14.00">base</text>
</g>
<!-- stage_2&#45;&gt;stage_4 -->
<g id="edge9" class="edge">
<title>stage_2&#45;&gt;stage_4</title>
<path fill="none" stroke="black" d="M644.79,-664.51C659.01,-654.6 674.65,-641.1 684,-625 732.44,-541.6 659.74,-486.31 720,-411 720.91,-409.86 721.88,-408.76 722.89,-407.71"/>
<polygon fill="black" stroke="black" points="724.93,-410.57 730.28,-401.43 720.4,-405.24 724.93,-410.57"/>
</g>
<!-- stage_6 -->
<g id="node9" class="node">
<title>stage_6</title>
<path fill="none" stroke="black" d="M1032,-458C1032,-458 912,-458 912,-458 906,-458 900,-452 900,-446 900,-446 900,-434 900,-434 900,-428 906,-422 912,-422 912,-422 1032,-422 1032,-422 1038,-422 1044,-428 1044,-434 1044,-434 1044,-446 1044,-446 1044,-452 1038,-458 1032,-458"/>
<text text-anchor="middle" x="972" y="-436.3" font-family="Times,serif" font-size="14.00">test</text>
</g>
<!-- stage_5&#45;&gt;stage_6 -->
<g id="edge34" class="edge">
<title>stage_5&#45;&gt;stage_6</title>
<path fill="none" stroke="black" stroke-dasharray="5,2" d="M864.37,-440C872.26,-440 880.34,-440 888.36,-440"/>
<polygon fill="none" stroke="black" points="888.1,-443.5 898.1,-440 888.1,-436.5 888.1,-443.5"/>
</g>
<!-- stage_7 -->
<g id="node10" class="node">
<title>stage_7</title>
<path fill="#e5e5e5" stroke="black" d="M1032,-400C1032,-400 912,-400 912,-400 906,-400 900,-394 900,-388 900,-388 900,-376 900,-376 900,-370 906,-364 912,-364 912,-364 1032,-364 1032,-364 1038,-364 1044,-370 1044,-376 1044,-376 1044,-388 1044,-388 1044,-394 1038,-400 1032,-400"/>
<text text-anchor="middle" x="972" y="-378.3" font-family="Times,serif" font-size="14.00">7</text>
</g>
<!-- stage_5&#45;&gt;stage_7 -->
<g id="edge37" class="edge">
<title>stage_5&#45;&gt;stage_7</title>
<path fill="none" stroke="black" stroke-dasharray="5,2" d="M849.32,-421.65C866.53,-416.04 885.63,-409.82 903.5,-404"/>
<polygon fill="none" stroke="black" points="904.57,-407.33 913,-400.9 902.4,-400.67 904.57,-407.33"/>
</g>
<!-- stage_4&#45;&gt;stage_6 -->
<g id="edge12" class="edge">
<title>stage_4&#45;&gt;stage_6</title>
<path fill="none" stroke="black" d="M849.32,-400.35C866.53,-405.96 885.63,-412.18 903.5,-418"/>
<polygon fill="black" stroke="black" points="902.4,-421.33 913,-421.1 904.57,-414.67 902.4,-421.33"/>
</g>
<!-- stage_4&#45;&gt;stage_7 -->
<g id="edge13" class="edge">
<title>stage_4&#45;&gt;stage_7</title>
<path fill="none" stroke="black" d="M864.37,-382C872.26,-382 880.34,-382 888.36,-382"/>
<polygon fill="black" stroke="black" points="888.1,-385.5 898.1,-382 888.1,-378.5 888.1,-385.5"/>
</g>
<!-- external_image_1 -->
<g id="node7" class="node">
<title>external_image_1</title>
<path fill="none" stroke="#333333" stroke-dasharray="5,2" d="M492,-614C492,-614 372,-614 372,-614 366,-614 360,-608 360,-602 360,-602 360,-590 360,-590 360,-584 366,-578 372,-578 372,-578 492,-578 492,-578 498,-578 504,-584 504,-590 504,-590 504,-602 504,-602 504,-608 498,-614 492,-614"/>
<text text-anchor="middle" x="432" y="-592.3" font-family="Times,serif" font-size="14.00" fill="#333333">alpine:3.12.0</text>
</g>
<!-- stage_3 -->
<g id="node8" class="node">
<title>stage_3</title>
<path fill="none" stroke="black" d="M672,-614C672,-614 552,-614 552,-614 546,-614 540,-608 540,-602 540,-602 540,-590 540,-590 540,-584 546,-578 552,-578 552,-578 672,-578 672,-578 678,-578 684,-584 684,-590 684,-590 684,-602 684,-602 684,-608 678,-614 672,-614"/>
<text text-anchor="middle" x="612" y="-592.3" font-family="Times,serif" font-size="14.00">a_dependency</text>
</g>
<!-- external_image_1&#45;&gt;stage_3 -->
<g id="edge10" class="edge">
<title>external_image_1&#45;&gt;stage_3</title>
<path fill="none" stroke="black" d="M504.37,-596C512.26,-596 520.34,-596 528.36,-596"/>
<polygon fill="black" stroke="black" points="528.1,-599.5 538.1,-596 528.1,-592.5 528.1,-599.5"/>
</g>
<!-- stage_3&#45;&gt;stage_4 -->
<g id="edge11" class="edge">
<title>stage_3&#45;&gt;stage_4</title>
<path fill="none" stroke="black" stroke-dasharray="5,2" d="M671.97,-577.57C676.44,-574.55 680.55,-571.06 684,-567 730.11,-512.8 673.89,-465.2 720,-411 721.08,-409.73 722.22,-408.52 723.42,-407.36"/>
<polygon fill="none" stroke="black" points="725.25,-410.38 730.85,-401.38 720.86,-404.92 725.25,-410.38"/>
</g>
<!-- external_image_2 -->
<g id="node11" class="node">
<title>external_image_2</title>
<path fill="none" stroke="#333333" stroke-dasharray="5,2" d="M672,-556C672,-556 552,-556 552,-556 546,-556 540,-550 540,-544 540,-544 540,-532 540,-532 540,-526 546,-520 552,-520 552,-520 672,-520 672,-520 678,-520 684,-526 684,-532 684,-532 684,-544 684,-544 684,-550 678,-556 672,-556"/>
<text text-anchor="middle" x="612" y="-534.3" font-family="Times,serif" font-size="14.00" fill="#333333">docker.i...pine:3.14</text>
</g>
<!-- external_image_2&#45;&gt;stage_4 -->
<g id="edge14" class="edge">
<title>external_image_2&#45;&gt;stage_4</title>
<path fill="none" stroke="black" stroke-dasharray="5,2" d="M662.5,-519.61C670.41,-515.07 677.96,-509.58 684,-503 713.7,-470.66 689.18,-442.28 720,-411 721.38,-409.6 722.84,-408.26 724.36,-406.99"/>
<polygon fill="none" stroke="black" points="726.33,-409.88 732.45,-401.23 722.27,-404.18 726.33,-409.88"/>
</g>
<!-- external_image_3 -->
<g id="node12" class="node">
<title>external_image_3</title>
<path fill="none" stroke="#333333" stroke-dasharray="5,2" d="M492,-556C492,-556 372,-556 372,-556 366,-556 360,-550 360,-544 360,-544 360,-532 360,-532 360,-526 366,-520 372,-520 372,-520 492,-520 492,-520 498,-520 504,-526 504,-532 504,-532 504,-544 504,-544 504,-550 498,-556 492,-556"/>
<text text-anchor="middle" x="432" y="-534.3" font-family="Times,serif" font-size="14.00" fill="#333333">docker.i...ne:3.14.1</text>
</g>
<!-- external_image_3&#45;&gt;stage_4 -->
<g id="edge15" class="edge">
<title>external_image_3&#45;&gt;stage_4</title>
<path fill="none" stroke="black" stroke-dasharray="5,2" d="M501.97,-519.57C535.17,-510.26 575.41,-498.34 611,-486"/>
</g>
<!-- external_image_4 -->
<g id="node13" class="node">
<title>external_image_4</title>
<path fill="none" stroke="#333333" stroke-dasharray="5,2" d="M312,-504C312,-504 192,-504 192,-504 186,-504 180,-498 180,-492 180,-492 180,-480 180,-480 180,-474 186,-468 192,-468 192,-468 312,-468 312,-468 318,-468 324,-474 324,-480 324,-480 324,-492 324,-492 324,-498 318,-504 312,-504"/>
<text text-anchor="middle" x="252" y="-482.3" font-family="Times,serif" font-size="14.00" fill="#333333">docker.i...ne:3.14.2</text>
</g>
<!-- external_image_4&#45;&gt;stage_4 -->
<g id="edge16" class="edge">
<title>external_image_4&#45;&gt;stage_4</title>
<path fill="none" stroke="black" stroke-dasharray="5,2" d="M324.11,-483.67C356.72,-483.2 395.86,-483.48 431,-486"/>
</g>
<!-- external_image_5 -->
<g id="node14" class="node">
<title>external_image_5</title>
<path fill="none" stroke="#333333" stroke-dasharray="5,2" d="M132,-452C132,-452 12,-452 12,-452 6,-452 0,-446 0,-440 0,-440 0,-428 0,-428 0,-422 6,-416 12,-416 12,-416 132,-416 132,-416 138,-416 144,-422 144,-428 144,-428 144,-440 144,-440 144,-446 138,-452 132,-452"/>
<text text-anchor="middle" x="72" y="-430.3" font-family="Times,serif" font-size="14.00" fill="#333333">docker.i...ne:3.14.3</text>
</g>
<!-- external_image_5&#45;&gt;stage_4 -->
<g id="edge17" class="edge">
<title>external_image_5&#45;&gt;stage_4</title>
<path fill="none" stroke="black" stroke-dasharray="5,2" d="M613,-486C644.34,-475.14 657.38,-482.79 684,-463 706.56,-446.23 698.08,-428.6 720,-411 722.1,-409.31 724.32,-407.71 726.61,-406.19"/>
<polygon fill="none" stroke="black" points="728.29,-409.27 735.12,-401.17 724.73,-403.24 728.29,-409.27"/>
<path fill="none" stroke="black" stroke-dasharray="5,2" d="M144.31,-437.24C194.79,-440.33 263.92,-446.19 324,-457 372.49,-465.73 381.86,-482.47 431,-486"/>
<path fill="none" stroke="black" stroke-dasharray="5,2" d="M433,-486C512,-490.16 536.25,-511.91 611,-486"/>
</g>
<!-- external_image_6 -->
<g id="node15" class="node">
<title>external_image_6</title>
<path fill="none" stroke="#333333" stroke-dasharray="5,2" d="M672,-452C672,-452 552,-452 552,-452 546,-452 540,-446 540,-440 540,-440 540,-428 540,-428 540,-422 546,-416 552,-416 552,-416 672,-416 672,-416 678,-416 684,-422 684,-428 684,-428 684,-440 684,-440 684,-446 678,-452 672,-452"/>
<text text-anchor="middle" x="612" y="-430.3" font-family="Times,serif" font-size="14.00" fill="#333333">docker.i...ne:3.14.4</text>
</g>
<!-- external_image_6&#45;&gt;stage_4 -->
<g id="edge18" class="edge">
<title>external_image_6&#45;&gt;stage_4</title>
<path fill="none" stroke="black" stroke-dasharray="5,2" d="M676.26,-415.52C689.5,-411.65 703.58,-407.54 717.18,-403.57"/>
<polygon fill="none" stroke="black" points="717.88,-407.01 726.49,-400.84 715.91,-400.29 717.88,-407.01"/>
</g>
<!-- external_image_7 -->
<g id="node16" class="node">
<title>external_image_7</title>
<path fill="none" stroke="#333333" stroke-dasharray="5,2" d="M492,-452C492,-452 372,-452 372,-452 366,-452 360,-446 360,-440 360,-440 360,-428 360,-428 360,-422 366,-416 372,-416 372,-416 492,-416 492,-416 498,-416 504,-422 504,-428 504,-428 504,-440 504,-440 504,-446 498,-452 492,-452"/>
<text text-anchor="middle" x="432" y="-430.3" font-family="Times,serif" font-size="14.00" fill="#333333">docker.i...ne:3.14.5</text>
</g>
<!-- external_image_7&#45;&gt;stage_4 -->
<g id="edge19" class="edge">
<title>external_image_7&#45;&gt;stage_4</title>
<path fill="none" stroke="black" stroke-dasharray="5,2" d="M476.66,-415.59C512.11,-402.03 563.8,-385.39 611,-382"/>
</g>
<!-- external_image_8 -->
<g id="node17" class="node">
<title>external_image_8</title>
<path fill="none" stroke="#333333" stroke-dasharray="5,2" d="M312,-400C312,-400 192,-400 192,-400 186,-400 180,-394 180,-388 180,-388 180,-376 180,-376 180,-370 186,-364 192,-364 192,-364 312,-364 312,-364 318,-364 324,-370 324,-376 324,-376 324,-388 324,-388 324,-394 318,-400 312,-400"/>
<text text-anchor="middle" x="252" y="-378.3" font-family="Times,serif" font-size="14.00" fill="#333333">docker.i...ne:3.14.6</text>
</g>
<!-- external_image_8&#45;&gt;stage_4 -->
<g id="edge20" class="edge">
<title>external_image_8&#45;&gt;stage_4</title>
<path fill="none" stroke="black" stroke-dasharray="5,2" d="M324.11,-379.67C356.72,-379.2 395.86,-379.48 431,-382"/>
</g>
<!-- external_image_9 -->
<g id="node18" class="node">
<title>external_image_9</title>
<path fill="none" stroke="#333333" stroke-dasharray="5,2" d="M132,-348C132,-348 12,-348 12,-348 6,-348 0,-342 0,-336 0,-336 0,-324 0,-324 0,-318 6,-312 12,-312 12,-312 132,-312 132,-312 138,-312 144,-318 144,-324 144,-324 144,-336 144,-336 144,-342 138,-348 132,-348"/>
<text text-anchor="middle" x="72" y="-326.3" font-family="Times,serif" font-size="14.00" fill="#333333">docker.i...ne:3.14.7</text>
</g>
<!-- external_image_9&#45;&gt;stage_4 -->
<g id="edge21" class="edge">
<title>external_image_9&#45;&gt;stage_4</title>
<path fill="none" stroke="black" stroke-dasharray="5,2" d="M144.31,-333.24C194.79,-336.33 263.92,-342.19 324,-353 372.49,-361.73 381.86,-378.47 431,-382"/>
<path fill="none" stroke="black" stroke-dasharray="5,2" d="M433,-382C512,-386.16 532.09,-387.67 611,-382"/>
<path fill="none" stroke="black" stroke-dasharray="5,2" d="M613,-382C644.16,-379.76 678.46,-379.29 708.57,-379.54"/>
<polygon fill="none" stroke="black" points="708.34,-383.04 718.38,-379.65 708.42,-376.04 708.34,-383.04"/>
</g>
<!-- external_image_10 -->
<g id="node19" class="node">
<title>external_image_10</title>
<path fill="none" stroke="#333333" stroke-dasharray="5,2" d="M672,-348C672,-348 552,-348 552,-348 546,-348 540,-342 540,-336 540,-336 540,-324 540,-324 540,-318 546,-312 552,-312 552,-312 672,-312 672,-312 678,-312 684,-318 684,-324 684,-324 684,-336 684,-336 684,-342 678,-348 672,-348"/>
<text text-anchor="middle" x="612" y="-326.3" font-family="Times,serif" font-size="14.00" fill="#333333">docker.i...ne:3.14.8</text>
</g>
<!-- external_image_10&#45;&gt;stage_4 -->
<g id="edge22" class="edge">
<title>external_image_10&#45;&gt;stage_4</title>
<path fill="none" stroke="black" stroke-dasharray="5,2" d="M676.26,-348.48C689.5,-352.35 703.58,-356.46 717.18,-360.43"/>
<polygon fill="none" stroke="black" points="715.91,-363.71 726.49,-363.16 717.88,-356.99 715.91,-363.71"/>
</g>
<!-- external_image_11 -->
<g id="node20" class="node">
<title>external_image_11</title>
<path fill="none" stroke="#333333" stroke-dasharray="5,2" d="M492,-348C492,-348 372,-348 372,-348 366,-348 360,-342 360,-336 360,-336 360,-324 360,-324 360,-318 366,-312 372,-312 372,-312 492,-312 492,-312 498,-312 504,-318 504,-324 504,-324 504,-336 504,-336 504,-342 498,-348 492,-348"/>
<text text-anchor="middle" x="432" y="-326.3" font-family="Times,serif" font-size="14.00" fill="#333333">docker.i...pine:3.15</text>
</g>
<!-- external_image_11&#45;&gt;stage_4 -->
<g id="edge23" class="edge">
<title>external_image_11&#45;&gt;stage_4</title>
<path fill="none" stroke="black" stroke-dasharray="5,2" d="M478.24,-311.65C522.11,-294.79 585.63,-273.11 611,-278"/>
</g>
<!-- external_image_12 -->
<g id="node21" class="node">
<title>external_image_12</title>
<path fill="none" stroke="#333333" stroke-dasharray="5,2" d="M312,-296C312,-296 192,-296 192,-296 186,-296 180,-290 180,-284 180,-284 180,-272 180,-272 180,-266 186,-260 192,-260 192,-260 312,-260 312,-260 318,-260 324,-266 324,-272 324,-272 324,-284 324,-284 324,-290 318,-296 312,-296"/>
<text text-anchor="middle" x="252" y="-274.3" font-family="Times,serif" font-size="14.00" fill="#333333">docker.i...ne:3.15.1</text>
</g>
<!-- external_image_12&#45;&gt;stage_4 -->
<g id="edge24" class="edge">
<title>external_image_12&#45;&gt;stage_4</title>
<path fill="none" stroke="black" stroke-dasharray="5,2" d="M324.11,-275.67C356.72,-275.2 395.86,-275.48 431,-278"/>
</g>
<!-- external_image_13 -->
<g id="node22" class="node">
<title>external_image_13</title>
<path fill="none" stroke="#333333" stroke-dasharray="5,2" d="M132,-244C132,-244 12,-244 12,-244 6,-244 0,-238 0,-232 0,-232 0,-220 0,-220 0,-214 6,-208 12,-208 12,-208 132,-208 132,-208 138,-208 144,-214 144,-220 144,-220 144,-232 144,-232 144,-238 138,-244 132,-244"/>
<text text-anchor="middle" x="72" y="-222.3" font-family="Times,serif" font-size="14.00" fill="#333333">docker.i...ne:3.15.2</text>
</g>
<!-- external_image_13&#45;&gt;stage_4 -->
<g id="edge25" class="edge">
<title>external_image_13&#45;&gt;stage_4</title>
<path fill="none" stroke="black" stroke-dasharray="5,2" d="M433,-278C511.91,-283.67 533.32,-263.04 611,-278"/>
<path fill="none" stroke="black" stroke-dasharray="5,2" d="M613,-278C645.57,-284.27 654.59,-285.66 684,-301 712.79,-316.01 741.95,-338.69 762.54,-356.23"/>
<polygon fill="none" stroke="black" points="760.1,-358.75 769.95,-362.65 764.68,-353.46 760.1,-358.75"/>
<path fill="none" stroke="black" stroke-dasharray="5,2" d="M144.31,-229.24C194.79,-232.33 263.92,-238.19 324,-249 372.49,-257.73 381.86,-274.47 431,-278"/>
</g>
<!-- external_image_14 -->
<g id="node23" class="node">
<title>external_image_14</title>
<path fill="none" stroke="#333333" stroke-dasharray="5,2" d="M672,-244C672,-244 552,-244 552,-244 546,-244 540,-238 540,-232 540,-232 540,-220 540,-220 540,-214 546,-208 552,-208 552,-208 672,-208 672,-208 678,-208 684,-214 684,-220 684,-220 684,-232 684,-232 684,-238 678,-244 672,-244"/>
<text text-anchor="middle" x="612" y="-222.3" font-family="Times,serif" font-size="14.00" fill="#333333">docker.i...ne:3.15.3</text>
</g>
<!-- external_image_14&#45;&gt;stage_4 -->
<g id="edge26" class="edge">
<title>external_image_14&#45;&gt;stage_4</title>
<path fill="none" stroke="black" stroke-dasharray="5,2" d="M657.01,-244.36C666.32,-249.15 675.81,-254.74 684,-261 719.33,-287.99 751.93,-327.95 771.64,-354.47"/>
<polygon fill="none" stroke="black" points="768.68,-356.35 777.41,-362.36 774.33,-352.22 768.68,-356.35"/>
</g>
<!-- external_image_15 -->
<g id="node24" class="node">
<title>external_image_15</title>
<path fill="none" stroke="#333333" stroke-dasharray="5,2" d="M492,-244C492,-244 372,-244 372,-244 366,-244 360,-238 360,-232 360,-232 360,-220 360,-220 360,-214 366,-208 372,-208 372,-208 492,-208 492,-208 498,-208 504,-214 504,-220 504,-220 504,-232 504,-232 504,-238 498,-244 492,-244"/>
<text text-anchor="middle" x="432" y="-222.3" font-family="Times,serif" font-size="14.00" fill="#333333">docker.i...ne:3.15.4</text>
</g>
<!-- external_image_15&#45;&gt;stage_4 -->
<g id="edge27" class="edge">
<title>external_image_15&#45;&gt;stage_4</title>
<path fill="none" stroke="black" stroke-dasharray="5,2" d="M474.65,-207.61C518.96,-189.15 586.04,-164.69 611,-174"/>
</g>
<!-- external_image_16 -->
<g id="node25" class="node">
<title>external_image_16</title>
<path fill="none" stroke="#333333" stroke-dasharray="5,2" d="M312,-192C312,-192 192,-192 192,-192 186,-192 180,-186 180,-180 180,-180 180,-168 180,-168 180,-162 186,-156 192,-156 192,-156 312,-156 312,-156 318,-156 324,-162 324,-168 324,-168 324,-180 324,-180 324,-186 318,-192 312,-192"/>
<text text-anchor="middle" x="252" y="-170.3" font-family="Times,serif" font-size="14.00" fill="#333333">docker.i...ne:3.15.5</text>
</g>
<!-- external_image_16&#45;&gt;stage_4 -->
<g id="edge28" class="edge">
<title>external_image_16&#45;&gt;stage_4</title>
<path fill="none" stroke="black" stroke-dasharray="5,2" d="M324.11,-171.67C356.72,-171.2 395.86,-171.48 431,-174"/>
</g>
<!-- external_image_17 -->
<g id="node26" class="node">
<title>external_image_17</title>
<path fill="none" stroke="#333333" stroke-dasharray="5,2" d="M132,-140C132,-140 12,-140 12,-140 6,-140 0,-134 0,-128 0,-128 0,-116 0,-116 0,-110 6,-104 12,-104 12,-104 132,-104 132,-104 138,-104 144,-110 144,-116 144,-116 144,-128 144,-128 144,-134 138,-140 132,-140"/>
<text text-anchor="middle" x="72" y="-118.3" font-family="Times,serif" font-size="14.00" fill="#333333">docker.i...ne:3.15.6</text>
</g>
<!-- external_image_17&#45;&gt;stage_4 -->
<g id="edge29" class="edge">
<title>external_image_17&#45;&gt;stage_4</title>
<path fill="none" stroke="black" stroke-dasharray="5,2" d="M144.31,-125.24C194.79,-128.33 263.92,-134.19 324,-145 372.49,-153.73 381.86,-170.47 431,-174"/>
<path fill="none" stroke="black" stroke-dasharray="5,2" d="M613,-174C644.08,-185.59 658.2,-176.15 684,-197 735.45,-238.59 767.14,-312 781.63,-352.72"/>
<polygon fill="none" stroke="black" points="778.3,-353.78 784.86,-362.1 784.92,-351.5 778.3,-353.78"/>
<path fill="none" stroke="black" stroke-dasharray="5,2" d="M433,-174C512,-178.16 536.88,-146.35 611,-174"/>
</g>
<!-- external_image_18 -->
<g id="node27" class="node">
<title>external_image_18</title>
<path fill="none" stroke="#333333" stroke-dasharray="5,2" d="M672,-140C672,-140 552,-140 552,-140 546,-140 540,-134 540,-128 540,-128 540,-116 540,-116 540,-110 546,-104 552,-104 552,-104 672,-104 672,-104 678,-104 684,-110 684,-116 684,-116 684,-128 684,-128 684,-134 678,-140 672,-140"/>
<text text-anchor="middle" x="612" y="-118.3" font-family="Times,serif" font-size="14.00" fill="#333333">docker.i...ne:3.16.1</text>
</g>
<!-- external_image_18&#45;&gt;stage_4 -->
<g id="edge30" class="edge">
<title>external_image_18&#45;&gt;stage_4</title>
<path fill="none" stroke="black" stroke-dasharray="5,2" d="M661.38,-140.34C669.59,-144.92 677.54,-150.44 684,-157 740.13,-213.93 770.99,-305.95 783.8,-352.7"/>
<polygon fill="none" stroke="black" points="780.35,-353.33 786.29,-362.1 787.12,-351.54 780.35,-353.33"/>
</g>
<!-- external_image_19 -->
<g id="node28" class="node">
<title>external_image_19</title>
<path fill="none" stroke="#333333" stroke-dasharray="5,2" d="M492,-140C492,-140 372,-140 372,-140 366,-140 360,-134 360,-128 360,-128 360,-116 360,-116 360,-110 366,-104 372,-104 372,-104 492,-104 492,-104 498,-104 504,-110 504,-116 504,-116 504,-128 504,-128 504,-134 498,-140 492,-140"/>
<text text-anchor="middle" x="432" y="-118.3" font-family="Times,serif" font-size="14.00" fill="#333333">docker.i...ne:3.16.2</text>
</g>
<!-- external_image_19&#45;&gt;stage_4 -->
<g id="edge31" class="edge">
<title>external_image_19&#45;&gt;stage_4</title>
<path fill="none" stroke="black" stroke-dasharray="5,2" d="M473.02,-103.6C517.62,-84.27 586.67,-58.19 611,-70"/>
</g>
<!-- external_image_20 -->
<g id="node29" class="node">
<title>external_image_20</title>
<path fill="none" stroke="#333333" stroke-dasharray="5,2" d="M312,-88C312,-88 192,-88 192,-88 186,-88 180,-82 180,-76 180,-76 180,-64 180,-64 180,-58 186,-52 192,-52 192,-52 312,-52 312,-52 318,-52 324,-58 324,-64 324,-64 324,-76 324,-76 324,-82 318,-88 312,-88"/>
<text text-anchor="middle" x="252" y="-66.3" font-family="Times,serif" font-size="14.00" fill="#333333">docker.i...ne:3.16.3</text>
</g>
<!-- external_image_20&#45;&gt;stage_4 -->
<g id="edge32" class="edge">
<title>external_image_20&#45;&gt;stage_4</title>
<path fill="none" stroke="black" stroke-dasharray="5,2" d="M324.11,-67.67C356.72,-67.2 395.86,-67.48 431,-70"/>
</g>
<!-- external_image_21 -->
<g id="node30" class="node">
<title>external_image_21</title>
<path fill="none" stroke="#333333" stroke-dasharray="5,2" d="M132,-36C132,-36 12,-36 12,-36 6,-36 0,-30 0,-24 0,-24 0,-12 0,-12 0,-6 6,0 12,0 12,0 132,0 132,0 138,0 144,-6 144,-12 144,-12 144,-24 144,-24 144,-30 138,-36 132,-36"/>
<text text-anchor="middle" x="72" y="-14.3" font-family="Times,serif" font-size="14.00" fill="#333333">docker.i...pine:3.16</text>
</g>
<!-- external_image_21&#45;&gt;stage_4 -->
<g id="edge33" class="edge">
<title>external_image_21&#45;&gt;stage_4</title>
<path fill="none" stroke="black" stroke-dasharray="5,2" d="M433,-70C511.91,-75.67 539.83,-35.44 611,-70"/>
<path fill="none" stroke="black" stroke-dasharray="5,2" d="M144.31,-21.24C194.79,-24.33 263.92,-30.19 324,-41 372.49,-49.73 381.86,-66.47 431,-70"/>
<path fill="none" stroke="black" stroke-dasharray="5,2" d="M613,-70C642.84,-84.49 660.07,-70.03 684,-93 759.15,-165.1 781.88,-294.65 788.46,-352.59"/>
<polygon fill="none" stroke="black" points="784.95,-352.73 789.47,-362.31 791.92,-352.01 784.95,-352.73"/>
</g>
</g>
</svg>
