<?xml version="1.0" encoding="UTF-8" standalone="no"?>
<!DOCTYPE svg PUBLIC "-//W3C//DTD SVG 1.1//EN"
 "http://www.w3.org/Graphics/SVG/1.1/DTD/svg11.dtd">
<!-- Generated by graphviz version 7.1.0 (20230121.1956)
 -->
<!-- Title: G Pages: 1 -->
<svg width="597pt" height="402pt"
 viewBox="0.00 0.00 597.00 402.00" xmlns="http://www.w3.org/2000/svg" xmlns:xlink="http://www.w3.org/1999/xlink">
<g id="graph0" class="graph" transform="scale(1 1) rotate(0) translate(4 398)">
<title>G</title>
<polygon fill="white" stroke="none" points="-4,4 -4,-398 593,-398 593,4 -4,4"/>
<g id="clust1" class="cluster">
<title>cluster_legend</title>
<polygon fill="none" stroke="black" points="8,-8 8,-78 372,-78 372,-8 8,-8"/>
</g>
<!-- key -->
<g id="node1" class="node">
<title>key</title>
<text text-anchor="start" x="164.5" y="-55" font-family="monospace" font-size="10.00">FROM ... </text>
<text text-anchor="start" x="122.5" y="-40" font-family="monospace" font-size="10.00">COPY &#45;&#45;from=... </text>
<text text-anchor="start" x="26.5" y="-25" font-family="monospace" font-size="10.00">RUN &#45;&#45;mount=type=cache,from=... </text>
</g>
<!-- key2 -->
<g id="node2" class="node">
<title>key2</title>
<text text-anchor="start" x="334" y="-55" font-family="monospace" font-size="10.00"> </text>
<text text-anchor="start" x="334" y="-40" font-family="monospace" font-size="10.00"> </text>
<text text-anchor="start" x="334" y="-25" font-family="monospace" font-size="10.00"> </text>
</g>
<!-- key&#45;&gt;key2 -->
<g id="edge1" class="edge">
<title>key:e&#45;&gt;key2:w</title>
<path fill="none" stroke="black" d="M222.5,-58C266.77,-58 280.56,-58 319.82,-58"/>
<polygon fill="black" stroke="black" points="319.49,-61.5 329.49,-58 319.49,-54.5 319.49,-61.5"/>
</g>
<!-- key&#45;&gt;key2 -->
<g id="edge2" class="edge">
<title>key:e&#45;&gt;key2:w</title>
<path fill="none" stroke="black" stroke-dasharray="5,2" d="M222.5,-42C266.77,-42 280.56,-42 319.82,-42"/>
<polygon fill="none" stroke="black" points="319.49,-45.5 329.49,-42 319.49,-38.5 319.49,-45.5"/>
</g>
<!-- key&#45;&gt;key2 -->
<g id="edge3" class="edge">
<title>key:e&#45;&gt;key2:w</title>
<path fill="none" stroke="black" stroke-dasharray="1,5" d="M222.5,-27C266.2,-27 280.2,-27 318.33,-27"/>
<polygon fill="none" stroke="black" points="318.1,-27 324.1,-23 330.1,-27 324.1,-31 318.1,-27"/>
</g>
<!-- external_image_0 -->
<g id="node3" class="node">
<title>external_image_0</title>
<path fill="none" stroke="#333333" stroke-dasharray="5,2" d="M205,-394C205,-394 40,-394 40,-394 34,-394 28,-388 28,-382 28,-382 28,-370 28,-370 28,-364 34,-358 40,-358 40,-358 205,-358 205,-358 211,-358 217,-364 217,-370 217,-370 217,-382 217,-382 217,-388 211,-394 205,-394"/>
<text text-anchor="middle" x="122.5" y="-372.3" font-family="Times,serif" font-size="14.00" fill="#333333">ubuntu:latest...34594887c2c7ac</text>
</g>
<!-- stage_0 -->
<g id="node4" class="node">
<title>stage_0</title>
<path fill="none" stroke="black" d="M397,-394C397,-394 277,-394 277,-394 271,-394 265,-388 265,-382 265,-382 265,-370 265,-370 265,-364 271,-358 277,-358 277,-358 397,-358 397,-358 403,-358 409,-364 409,-370 409,-370 409,-382 409,-382 409,-388 403,-394 397,-394"/>
<text text-anchor="middle" x="337" y="-372.3" font-family="Times,serif" font-size="14.00">ubuntu</text>
</g>
<!-- external_image_0&#45;&gt;stage_0 -->
<g id="edge4" class="edge">
<title>external_image_0&#45;&gt;stage_0</title>
<path fill="none" stroke="black" d="M217.32,-376C229.37,-376 241.64,-376 253.49,-376"/>
<polygon fill="black" stroke="black" points="253.19,-379.5 263.19,-376 253.19,-372.5 253.19,-379.5"/>
</g>
<!-- stage_2 -->
<g id="node9" class="node">
<title>stage_2</title>
<path fill="#e5e5e5" stroke="black" d="M577,-286C577,-286 457,-286 457,-286 451,-286 445,-280 445,-274 445,-274 445,-262 445,-262 445,-256 451,-250 457,-250 457,-250 577,-250 577,-250 583,-250 589,-256 589,-262 589,-262 589,-274 589,-274 589,-280 583,-286 577,-286"/>
<text text-anchor="middle" x="517" y="-264.3" font-family="Times,serif" font-size="14.00">release</text>
</g>
<!-- stage_0&#45;&gt;stage_2 -->
<g id="edge8" class="edge">
<title>stage_0&#45;&gt;stage_2</title>
<path fill="none" stroke="black" stroke-dasharray="5,2" d="M368.2,-357.68C397.86,-339.68 443.3,-312.11 475.96,-292.29"/>
<polygon fill="none" stroke="black" points="477.63,-295.38 484.36,-287.2 474,-289.39 477.63,-295.38"/>
</g>
<!-- external_image_1 -->
<g id="node5" class="node">
<title>external_image_1</title>
<path fill="none" stroke="#333333" stroke-dasharray="5,2" d="M209,-286C209,-286 36,-286 36,-286 30,-286 24,-280 24,-274 24,-274 24,-262 24,-262 24,-256 30,-250 36,-250 36,-250 209,-250 209,-250 215,-250 221,-256 221,-262 221,-262 221,-274 221,-274 221,-280 215,-286 209,-286"/>
<text text-anchor="middle" x="122.5" y="-264.3" font-family="Times,serif" font-size="14.00" fill="#333333">golang:1.18.4...26796b738433da</text>
</g>
<!-- stage_1 -->
<g id="node6" class="node">
<title>stage_1</title>
<path fill="none" stroke="black" d="M397,-286C397,-286 277,-286 277,-286 271,-286 265,-280 265,-274 265,-274 265,-262 265,-262 265,-256 271,-250 277,-250 277,-250 397,-250 397,-250 403,-250 409,-256 409,-262 409,-262 409,-274 409,-274 409,-280 403,-286 397,-286"/>
<text text-anchor="middle" x="337" y="-264.3" font-family="Times,serif" font-size="14.00">build</text>
</g>
<!-- external_image_1&#45;&gt;stage_1 -->
<g id="edge5" class="edge">
<title>external_image_1&#45;&gt;stage_1</title>
<path fill="none" stroke="black" d="M221.35,-268C232.07,-268 242.91,-268 253.41,-268"/>
<polygon fill="black" stroke="black" points="253.16,-271.5 263.16,-268 253.16,-264.5 253.16,-271.5"/>
</g>
<!-- stage_1&#45;&gt;stage_2 -->
<g id="edge9" class="edge">
<title>stage_1&#45;&gt;stage_2</title>
<path fill="none" stroke="black" stroke-dasharray="5,2" d="M409.37,-268C417.26,-268 425.34,-268 433.36,-268"/>
<polygon fill="none" stroke="black" points="433.1,-271.5 443.1,-268 433.1,-264.5 433.1,-271.5"/>
</g>
<!-- external_image_2 -->
<g id="node7" class="node">
<title>external_image_2</title>
<path fill="none" stroke="#333333" stroke-dasharray="5,2" d="M182.5,-178C182.5,-178 62.5,-178 62.5,-178 56.5,-178 50.5,-172 50.5,-166 50.5,-166 50.5,-154 50.5,-154 50.5,-148 56.5,-142 62.5,-142 62.5,-142 182.5,-142 182.5,-142 188.5,-142 194.5,-148 194.5,-154 194.5,-154 194.5,-166 194.5,-166 194.5,-172 188.5,-178 182.5,-178"/>
<text text-anchor="middle" x="122.5" y="-156.3" font-family="Times,serif" font-size="14.00" fill="#333333">buildcache</text>
</g>
<!-- external_image_2&#45;&gt;stage_1 -->
<g id="edge6" class="edge">
<title>external_image_2&#45;&gt;stage_1</title>
<path fill="none" stroke="black" stroke-dasharray="1,5" d="M159.55,-178.32C194.96,-196.32 249.21,-223.89 288.2,-243.71"/>
<polygon fill="none" stroke="black" points="288.27,-243.74 295.44,-242.9 298.97,-249.18 291.81,-250.03 288.27,-243.74"/>
</g>
<!-- external_image_3 -->
<g id="node8" class="node">
<title>external_image_3</title>
<path fill="none" stroke="#333333" stroke-dasharray="5,2" d="M397,-178C397,-178 277,-178 277,-178 271,-178 265,-172 265,-166 265,-166 265,-154 265,-154 265,-148 271,-142 277,-142 277,-142 397,-142 397,-142 403,-142 409,-148 409,-154 409,-154 409,-166 409,-166 409,-172 403,-178 397,-178"/>
<text text-anchor="middle" x="337" y="-156.3" font-family="Times,serif" font-size="14.00" fill="#333333">scratch</text>
</g>
<!-- external_image_3&#45;&gt;stage_2 -->
<g id="edge7" class="edge">
<title>external_image_3&#45;&gt;stage_2</title>
<path fill="none" stroke="black" d="M368.2,-178.32C397.86,-196.32 443.3,-223.89 475.96,-243.71"/>
<polygon fill="black" stroke="black" points="474,-246.61 484.36,-248.8 477.63,-240.62 474,-246.61"/>
</g>
</g>
</svg>
