<?xml version="1.0" encoding="UTF-8" standalone="no"?>
<!DOCTYPE svg PUBLIC "-//W3C//DTD SVG 1.1//EN"
 "http://www.w3.org/Graphics/SVG/1.1/DTD/svg11.dtd">
<!-- Generated by graphviz version 8.0.5 (20230430.1635)
 -->
<!-- Title: G Pages: 1 -->
<svg width="1076pt" height="441pt"
 viewBox="0.00 0.00 1076.25 441.00" xmlns="http://www.w3.org/2000/svg" xmlns:xlink="http://www.w3.org/1999/xlink">
<g id="graph0" class="graph" transform="scale(1 1) rotate(0) translate(4 437)">
<title>G</title>
<polygon fill="white" stroke="none" points="-4,4 -4,-437 1072.25,-437 1072.25,4 -4,4"/>
<g id="clust1" class="cluster">
<title>cluster_stage_0</title>
<polygon fill="none" stroke="black" points="164,-8 164,-101 520,-101 520,-8 164,-8"/>
<text text-anchor="middle" x="342" y="-83.7" font-family="Times,serif" font-size="14.00">ubuntu</text>
</g>
<g id="clust2" class="cluster">
<title>cluster_stage_1</title>
<polygon fill="none" stroke="black" points="344,-332 344,-425 700,-425 700,-332 344,-332"/>
<text text-anchor="middle" x="522" y="-407.7" font-family="Times,serif" font-size="14.00">build&#45;tool&#45;dependencies</text>
</g>
<g id="clust3" class="cluster">
<title>cluster_stage_2</title>
<polygon fill="#e5e5e5" stroke="black" points="344,-116 344,-209 1060.25,-209 1060.25,-116 344,-116"/>
<text text-anchor="middle" x="702.12" y="-191.7" font-family="Times,serif" font-size="14.00">release</text>
</g>
<!-- stage_0_layer_0 -->
<g id="node1" class="node">
<title>stage_0_layer_0</title>
<path fill="white" stroke="black" stroke-width="0.5" d="M312,-60C312,-60 192,-60 192,-60 186,-60 180,-54 180,-48 180,-48 180,-36 180,-36 180,-30 186,-24 192,-24 192,-24 312,-24 312,-24 318,-24 324,-30 324,-36 324,-36 324,-48 324,-48 324,-54 318,-60 312,-60"/>
<text text-anchor="middle" x="252" y="-36.95" font-family="Times,serif" font-size="14.00">FROM ubuntu:lates...</text>
</g>
<!-- stage_0_layer_1 -->
<g id="node2" class="node">
<title>stage_0_layer_1</title>
<path fill="white" stroke="black" stroke-width="0.5" d="M492,-60C492,-60 372,-60 372,-60 366,-60 360,-54 360,-48 360,-48 360,-36 360,-36 360,-30 366,-24 372,-24 372,-24 492,-24 492,-24 498,-24 504,-30 504,-36 504,-36 504,-48 504,-48 504,-54 498,-60 492,-60"/>
<text text-anchor="middle" x="432" y="-36.95" font-family="Times,serif" font-size="14.00">RUN &#160;&#160;apt&#45;get upd...</text>
</g>
<!-- stage_0_layer_0&#45;&gt;stage_0_layer_1 -->
<g id="edge1" class="edge">
<title>stage_0_layer_0&#45;&gt;stage_0_layer_1</title>
<path fill="none" stroke="black" d="M323.86,-42C332.25,-42 340.86,-42 349.37,-42"/>
<polygon fill="black" stroke="black" points="349.09,-45.5 359.09,-42 349.09,-38.5 349.09,-45.5"/>
</g>
<!-- stage_2_layer_1 -->
<g id="node9" class="node">
<title>stage_2_layer_1</title>
<path fill="white" stroke="black" stroke-width="0.5" d="M672,-168C672,-168 552,-168 552,-168 546,-168 540,-162 540,-156 540,-156 540,-144 540,-144 540,-138 546,-132 552,-132 552,-132 672,-132 672,-132 678,-132 684,-138 684,-144 684,-144 684,-156 684,-156 684,-162 678,-168 672,-168"/>
<text text-anchor="middle" x="612" y="-144.95" font-family="Times,serif" font-size="14.00">COPY &#45;&#45;from=ubunt...</text>
</g>
<!-- stage_0_layer_1&#45;&gt;stage_2_layer_1 -->
<g id="edge10" class="edge">
<title>stage_0_layer_1&#45;&gt;stage_2_layer_1</title>
<path fill="none" stroke="black" stroke-dasharray="5,2" d="M520,-94.79C538.33,-105.91 556.77,-117.09 572.21,-126.46"/>
<polygon fill="none" stroke="black" points="570.2,-129.94 580.56,-132.14 573.83,-123.96 570.2,-129.94"/>
</g>
<!-- external_image_0 -->
<g id="node3" class="node">
<title>external_image_0</title>
<path fill="none" stroke="#333333" stroke-dasharray="5,2" d="M132,-60C132,-60 12,-60 12,-60 6,-60 0,-54 0,-48 0,-48 0,-36 0,-36 0,-30 6,-24 12,-24 12,-24 132,-24 132,-24 138,-24 144,-30 144,-36 144,-36 144,-48 144,-48 144,-54 138,-60 132,-60"/>
<text text-anchor="middle" x="72" y="-36.95" font-family="Times,serif" font-size="14.00" fill="#333333">ubuntu:l...887c2c7ac</text>
</g>
<!-- external_image_0&#45;&gt;stage_0_layer_0 -->
<g id="edge2" class="edge">
<title>external_image_0&#45;&gt;stage_0_layer_0</title>
<path fill="none" stroke="black" d="M144.37,-42C152.58,-42 160.99,-42 169.32,-42"/>
<polygon fill="black" stroke="black" points="169.19,-45.5 179.19,-42 169.19,-38.5 169.19,-45.5"/>
</g>
<!-- stage_1_layer_0 -->
<g id="node4" class="node">
<title>stage_1_layer_0</title>
<path fill="white" stroke="black" stroke-width="0.5" d="M492,-384C492,-384 372,-384 372,-384 366,-384 360,-378 360,-372 360,-372 360,-360 360,-360 360,-354 366,-348 372,-348 372,-348 492,-348 492,-348 498,-348 504,-354 504,-360 504,-360 504,-372 504,-372 504,-378 498,-384 492,-384"/>
<text text-anchor="middle" x="432" y="-360.95" font-family="Times,serif" font-size="14.00">FROM golang:1.18....</text>
</g>
<!-- stage_1_layer_1 -->
<g id="node5" class="node">
<title>stage_1_layer_1</title>
<path fill="white" stroke="black" stroke-width="0.5" d="M672,-384C672,-384 552,-384 552,-384 546,-384 540,-378 540,-372 540,-372 540,-360 540,-360 540,-354 546,-348 552,-348 552,-348 672,-348 672,-348 678,-348 684,-354 684,-360 684,-360 684,-372 684,-372 684,-378 678,-384 672,-384"/>
<text text-anchor="middle" x="612" y="-360.95" font-family="Times,serif" font-size="14.00">RUN &#45;&#45;mount=type=...</text>
</g>
<!-- stage_1_layer_0&#45;&gt;stage_1_layer_1 -->
<g id="edge3" class="edge">
<title>stage_1_layer_0&#45;&gt;stage_1_layer_1</title>
<path fill="none" stroke="black" d="M503.86,-366C512.25,-366 520.86,-366 529.37,-366"/>
<polygon fill="black" stroke="black" points="529.09,-369.5 539.09,-366 529.09,-362.5 529.09,-369.5"/>
</g>
<!-- stage_2_layer_2 -->
<g id="node10" class="node">
<title>stage_2_layer_2</title>
<path fill="white" stroke="black" stroke-width="0.5" d="M852,-168C852,-168 732,-168 732,-168 726,-168 720,-162 720,-156 720,-156 720,-144 720,-144 720,-138 726,-132 732,-132 732,-132 852,-132 852,-132 858,-132 864,-138 864,-144 864,-144 864,-156 864,-156 864,-162 858,-168 852,-168"/>
<text text-anchor="middle" x="792" y="-144.95" font-family="Times,serif" font-size="14.00">COPY &#45;&#45;from=build...</text>
</g>
<!-- stage_1_layer_1&#45;&gt;stage_2_layer_2 -->
<g id="edge11" class="edge">
<title>stage_1_layer_1&#45;&gt;stage_2_layer_2</title>
<path fill="none" stroke="black" stroke-dasharray="5,2" d="M641.02,-332C676.59,-288.84 737.19,-215.29 769.4,-176.21"/>
<polygon fill="none" stroke="black" points="772.57,-178.86 776.23,-168.92 767.17,-174.41 772.57,-178.86"/>
</g>
<!-- external_image_1 -->
<g id="node6" class="node">
<title>external_image_1</title>
<path fill="none" stroke="#333333" stroke-dasharray="5,2" d="M312,-384C312,-384 192,-384 192,-384 186,-384 180,-378 180,-372 180,-372 180,-360 180,-360 180,-354 186,-348 192,-348 192,-348 312,-348 312,-348 318,-348 324,-354 324,-360 324,-360 324,-372 324,-372 324,-378 318,-384 312,-384"/>
<text text-anchor="middle" x="252" y="-360.95" font-family="Times,serif" font-size="14.00" fill="#333333">golang:1...b738433da</text>
</g>
<!-- external_image_1&#45;&gt;stage_1_layer_0 -->
<g id="edge4" class="edge">
<title>external_image_1&#45;&gt;stage_1_layer_0</title>
<path fill="none" stroke="black" d="M324.37,-366C332.58,-366 340.99,-366 349.32,-366"/>
<polygon fill="black" stroke="black" points="349.19,-369.5 359.19,-366 349.19,-362.5 349.19,-369.5"/>
</g>
<!-- external_image_2 -->
<g id="node7" class="node">
<title>external_image_2</title>
<path fill="none" stroke="#333333" stroke-dasharray="5,2" d="M492,-276C492,-276 372,-276 372,-276 366,-276 360,-270 360,-264 360,-264 360,-252 360,-252 360,-246 366,-240 372,-240 372,-240 492,-240 492,-240 498,-240 504,-246 504,-252 504,-252 504,-264 504,-264 504,-270 498,-276 492,-276"/>
<text text-anchor="middle" x="432" y="-252.95" font-family="Times,serif" font-size="14.00" fill="#333333">buildcache</text>
</g>
<!-- external_image_2&#45;&gt;stage_1_layer_1 -->
<g id="edge5" class="edge">
<title>external_image_2&#45;&gt;stage_1_layer_1</title>
<path fill="none" stroke="black" stroke-dasharray="1,5" d="M463.2,-276.32C492.74,-294.25 537.94,-321.67 570.57,-341.47"/>
<polygon fill="none" stroke="black" points="570.52,-341.44 577.72,-341.13 580.78,-347.66 573.57,-347.97 570.52,-341.44"/>
</g>
<!-- stage_2_layer_0 -->
<g id="node8" class="node">
<title>stage_2_layer_0</title>
<path fill="white" stroke="black" stroke-width="0.5" d="M492,-168C492,-168 372,-168 372,-168 366,-168 360,-162 360,-156 360,-156 360,-144 360,-144 360,-138 366,-132 372,-132 372,-132 492,-132 492,-132 498,-132 504,-138 504,-144 504,-144 504,-156 504,-156 504,-162 498,-168 492,-168"/>
<text text-anchor="middle" x="432" y="-144.95" font-family="Times,serif" font-size="14.00">FROM scratch AS r...</text>
</g>
<!-- stage_2_layer_0&#45;&gt;stage_2_layer_1 -->
<g id="edge6" class="edge">
<title>stage_2_layer_0&#45;&gt;stage_2_layer_1</title>
<path fill="none" stroke="black" d="M503.86,-150C512.25,-150 520.86,-150 529.37,-150"/>
<polygon fill="black" stroke="black" points="529.09,-153.5 539.09,-150 529.09,-146.5 529.09,-153.5"/>
</g>
<!-- stage_2_layer_1&#45;&gt;stage_2_layer_2 -->
<g id="edge7" class="edge">
<title>stage_2_layer_1&#45;&gt;stage_2_layer_2</title>
<path fill="none" stroke="black" d="M683.86,-150C692.25,-150 700.86,-150 709.37,-150"/>
<polygon fill="black" stroke="black" points="709.09,-153.5 719.09,-150 709.09,-146.5 709.09,-153.5"/>
</g>
<!-- stage_2_layer_3 -->
<g id="node11" class="node">
<title>stage_2_layer_3</title>
<path fill="white" stroke="black" stroke-width="0.5" d="M1032.25,-168C1032.25,-168 912,-168 912,-168 906,-168 900,-162 900,-156 900,-156 900,-144 900,-144 900,-138 906,-132 912,-132 912,-132 1032.25,-132 1032.25,-132 1038.25,-132 1044.25,-138 1044.25,-144 1044.25,-144 1044.25,-156 1044.25,-156 1044.25,-162 1038.25,-168 1032.25,-168"/>
<text text-anchor="middle" x="972.12" y="-144.95" font-family="Times,serif" font-size="14.00">ENTRYPOINT [&#39;/exa...</text>
</g>
<!-- stage_2_layer_2&#45;&gt;stage_2_layer_3 -->
<g id="edge8" class="edge">
<title>stage_2_layer_2&#45;&gt;stage_2_layer_3</title>
<path fill="none" stroke="black" d="M863.91,-150C872.3,-150 880.92,-150 889.44,-150"/>
<polygon fill="black" stroke="black" points="889.17,-153.5 899.17,-150 889.17,-146.5 889.17,-153.5"/>
</g>
<!-- external_image_3 -->
<g id="node12" class="node">
<title>external_image_3</title>
<path fill="none" stroke="#333333" stroke-dasharray="5,2" d="M312,-168C312,-168 192,-168 192,-168 186,-168 180,-162 180,-156 180,-156 180,-144 180,-144 180,-138 186,-132 192,-132 192,-132 312,-132 312,-132 318,-132 324,-138 324,-144 324,-144 324,-156 324,-156 324,-162 318,-168 312,-168"/>
<text text-anchor="middle" x="252" y="-144.95" font-family="Times,serif" font-size="14.00" fill="#333333">scratch</text>
</g>
<!-- external_image_3&#45;&gt;stage_2_layer_0 -->
<g id="edge9" class="edge">
<title>external_image_3&#45;&gt;stage_2_layer_0</title>
<path fill="none" stroke="black" d="M324.37,-150C332.58,-150 340.99,-150 349.32,-150"/>
<polygon fill="black" stroke="black" points="349.19,-153.5 359.19,-150 349.19,-146.5 349.19,-153.5"/>
</g>
</g>
</svg>
