<?xml version="1.0" encoding="UTF-8" standalone="no"?>
<!DOCTYPE svg PUBLIC "-//W3C//DTD SVG 1.1//EN"
 "http://www.w3.org/Graphics/SVG/1.1/DTD/svg11.dtd">
<!-- Generated by graphviz version 13.1.0 (20250701.0955)
 -->
<!-- Title: G Pages: 1 -->
<svg width="554pt" height="406pt"
 viewBox="0.00 0.00 554.00 406.00" xmlns="http://www.w3.org/2000/svg" xmlns:xlink="http://www.w3.org/1999/xlink">
<g id="graph0" class="graph" transform="scale(1 1) rotate(0) translate(4 402)">
<title>G</title>
<polygon fill="white" stroke="none" points="-4,4 -4,-402 550,-402 550,4 -4,4"/>
<g id="clust1" class="cluster">
<title>cluster_legend</title>
<polygon fill="none" stroke="black" points="8,-8 8,-82 329,-82 329,-8 8,-8"/>
</g>
<!-- key -->
<g id="node1" class="node">
<title>key</title>
<text xml:space="preserve" text-anchor="start" x="122" y="-58.62" font-family="monospace" font-size="10.00">FROM ... </text>
<text xml:space="preserve" text-anchor="start" x="80" y="-41.88" font-family="monospace" font-size="10.00">COPY &#45;&#45;from=... </text>
<text xml:space="preserve" text-anchor="start" x="26" y="-25.12" font-family="monospace" font-size="10.00">RUN &#45;&#45;mount=(.*)from=... </text>
</g>
<!-- key2 -->
<g id="node2" class="node">
<title>key2</title>
<text xml:space="preserve" text-anchor="start" x="291" y="-58.62" font-family="monospace" font-size="10.00"> </text>
<text xml:space="preserve" text-anchor="start" x="291" y="-41.88" font-family="monospace" font-size="10.00"> </text>
<text xml:space="preserve" text-anchor="start" x="291" y="-25.12" font-family="monospace" font-size="10.00"> </text>
</g>
<!-- key&#45;&gt;key2 -->
<g id="edge1" class="edge">
<title>key:e&#45;&gt;key2:w</title>
<path fill="none" stroke="black" d="M179,-61.75C223.38,-61.75 237.26,-61.75 276.52,-61.75"/>
<polygon fill="black" stroke="black" points="276.49,-65.25 286.49,-61.75 276.49,-58.25 276.49,-65.25"/>
</g>
<!-- key&#45;&gt;key2 -->
<g id="edge2" class="edge">
<title>key:e&#45;&gt;key2:w</title>
<path fill="none" stroke="black" stroke-dasharray="5,2" d="M179,-45C223.38,-45 237.26,-45 276.52,-45"/>
<polygon fill="none" stroke="black" points="276.49,-48.5 286.49,-45 276.49,-41.5 276.49,-48.5"/>
</g>
<!-- key&#45;&gt;key2 -->
<g id="edge3" class="edge">
<title>key:e&#45;&gt;key2:w</title>
<path fill="none" stroke="black" stroke-dasharray="1,5" d="M179,-28.25C222.9,-28.25 236.97,-28.25 275.27,-28.25"/>
<polygon fill="none" stroke="black" points="275.1,-28.25 281.1,-24.25 287.1,-28.25 281.1,-32.25 275.1,-28.25"/>
</g>
<!-- external_image_0 -->
<g id="node3" class="node">
<title>external_image_0</title>
<path fill="none" stroke="#333333" stroke-dasharray="5,2" d="M161,-398C161,-398 41,-398 41,-398 35,-398 29,-392 29,-386 29,-386 29,-374 29,-374 29,-368 35,-362 41,-362 41,-362 161,-362 161,-362 167,-362 173,-368 173,-374 173,-374 173,-386 173,-386 173,-392 167,-398 161,-398"/>
<text xml:space="preserve" text-anchor="middle" x="101" y="-374.95" font-family="Times,serif" font-size="14.00" fill="#333333">ubuntu:l...887c2c7ac</text>
</g>
<!-- stage_0 -->
<g id="node4" class="node">
<title>stage_0</title>
<path fill="none" stroke="black" d="M354,-398C354,-398 234,-398 234,-398 228,-398 222,-392 222,-386 222,-386 222,-374 222,-374 222,-368 228,-362 234,-362 234,-362 354,-362 354,-362 360,-362 366,-368 366,-374 366,-374 366,-386 366,-386 366,-392 360,-398 354,-398"/>
<text xml:space="preserve" text-anchor="middle" x="294" y="-374.95" font-family="Times,serif" font-size="14.00">ubuntu</text>
</g>
<!-- external_image_0&#45;&gt;stage_0 -->
<g id="edge4" class="edge">
<title>external_image_0&#45;&gt;stage_0</title>
<path fill="none" stroke="black" d="M173.39,-380C185.48,-380 198.12,-380 210.46,-380"/>
<polygon fill="black" stroke="black" points="210.18,-383.5 220.18,-380 210.18,-376.5 210.18,-383.5"/>
</g>
<!-- stage_2 -->
<g id="node9" class="node">
<title>stage_2</title>
<path fill="#e5e5e5" stroke="black" d="M534,-290C534,-290 414,-290 414,-290 408,-290 402,-284 402,-278 402,-278 402,-266 402,-266 402,-260 408,-254 414,-254 414,-254 534,-254 534,-254 540,-254 546,-260 546,-266 546,-266 546,-278 546,-278 546,-284 540,-290 534,-290"/>
<text xml:space="preserve" text-anchor="middle" x="474" y="-266.95" font-family="Times,serif" font-size="14.00">release</text>
</g>
<!-- stage_0&#45;&gt;stage_2 -->
<g id="edge8" class="edge">
<title>stage_0&#45;&gt;stage_2</title>
<path fill="none" stroke="black" stroke-dasharray="5,2" d="M325.2,-361.68C354.86,-343.68 400.3,-316.11 432.96,-296.29"/>
<polygon fill="none" stroke="black" points="434.63,-299.38 441.36,-291.2 431,-293.39 434.63,-299.38"/>
</g>
<!-- external_image_1 -->
<g id="node5" class="node">
<title>external_image_1</title>
<path fill="none" stroke="#333333" stroke-dasharray="5,2" d="M161,-290C161,-290 41,-290 41,-290 35,-290 29,-284 29,-278 29,-278 29,-266 29,-266 29,-260 35,-254 41,-254 41,-254 161,-254 161,-254 167,-254 173,-260 173,-266 173,-266 173,-278 173,-278 173,-284 167,-290 161,-290"/>
<text xml:space="preserve" text-anchor="middle" x="101" y="-266.95" font-family="Times,serif" font-size="14.00" fill="#333333">golang:1...b738433da</text>
</g>
<!-- stage_1 -->
<g id="node6" class="node">
<title>stage_1</title>
<path fill="none" stroke="black" d="M354,-290C354,-290 234,-290 234,-290 228,-290 222,-284 222,-278 222,-278 222,-266 222,-266 222,-260 228,-254 234,-254 234,-254 354,-254 354,-254 360,-254 366,-260 366,-266 366,-266 366,-278 366,-278 366,-284 360,-290 354,-290"/>
<text xml:space="preserve" text-anchor="middle" x="294" y="-266.95" font-family="Times,serif" font-size="14.00">build&#45;tool&#45;depend...</text>
</g>
<!-- external_image_1&#45;&gt;stage_1 -->
<g id="edge5" class="edge">
<title>external_image_1&#45;&gt;stage_1</title>
<path fill="none" stroke="black" d="M173.39,-272C185.48,-272 198.12,-272 210.46,-272"/>
<polygon fill="black" stroke="black" points="210.18,-275.5 220.18,-272 210.18,-268.5 210.18,-275.5"/>
</g>
<!-- stage_1&#45;&gt;stage_2 -->
<g id="edge9" class="edge">
<title>stage_1&#45;&gt;stage_2</title>
<path fill="none" stroke="black" stroke-dasharray="5,2" d="M366.37,-272C374.26,-272 382.34,-272 390.36,-272"/>
<polygon fill="none" stroke="black" points="390.1,-275.5 400.1,-272 390.1,-268.5 390.1,-275.5"/>
</g>
<!-- external_image_2 -->
<g id="node7" class="node">
<title>external_image_2</title>
<path fill="none" stroke="#333333" stroke-dasharray="5,2" d="M161,-182C161,-182 41,-182 41,-182 35,-182 29,-176 29,-170 29,-170 29,-158 29,-158 29,-152 35,-146 41,-146 41,-146 161,-146 161,-146 167,-146 173,-152 173,-158 173,-158 173,-170 173,-170 173,-176 167,-182 161,-182"/>
<text xml:space="preserve" text-anchor="middle" x="101" y="-158.95" font-family="Times,serif" font-size="14.00" fill="#333333">buildcache</text>
</g>
<!-- external_image_2&#45;&gt;stage_1 -->
<g id="edge6" class="edge">
<title>external_image_2&#45;&gt;stage_1</title>
<path fill="none" stroke="black" stroke-dasharray="1,5" d="M134.4,-182.32C165.96,-200.16 214.15,-227.41 249.13,-247.19"/>
<polygon fill="none" stroke="black" points="249.21,-247.24 256.4,-246.71 259.66,-253.15 252.46,-253.67 249.21,-247.24"/>
</g>
<!-- external_image_3 -->
<g id="node8" class="node">
<title>external_image_3</title>
<path fill="none" stroke="#333333" stroke-dasharray="5,2" d="M354,-182C354,-182 234,-182 234,-182 228,-182 222,-176 222,-170 222,-170 222,-158 222,-158 222,-152 228,-146 234,-146 234,-146 354,-146 354,-146 360,-146 366,-152 366,-158 366,-158 366,-170 366,-170 366,-176 360,-182 354,-182"/>
<text xml:space="preserve" text-anchor="middle" x="294" y="-158.95" font-family="Times,serif" font-size="14.00" fill="#333333">scratch</text>
</g>
<!-- external_image_3&#45;&gt;stage_2 -->
<g id="edge7" class="edge">
<title>external_image_3&#45;&gt;stage_2</title>
<path fill="none" stroke="black" d="M325.2,-182.32C354.86,-200.32 400.3,-227.89 432.96,-247.71"/>
<polygon fill="black" stroke="black" points="431,-250.61 441.36,-252.8 434.63,-244.62 431,-250.61"/>
</g>
</g>
</svg>
